<?xml version="1.0" encoding="UTF-8"?>
<svg width="30px" height="39px" viewBox="0 0 30 39" version="1.1" xmlns="http://www.w3.org/2000/svg" xmlns:xlink="http://www.w3.org/1999/xlink">
    <!-- Generator: Sketch 50.2 (55047) - http://www.bohemiancoding.com/sketch -->
    <title>Group 2@2x</title>
    <desc>Created with Sketch.</desc>
    <defs></defs>
    <g id="Sprint-2" stroke="none" stroke-width="1" fill="none" fill-rule="evenodd">
        <g id="VIZ-2-21-Days" transform="translate(-269.000000, -285.000000)" fill="#FFFFFF" fill-rule="nonzero">
            <g id="Group-2" transform="translate(285.887924, 307.885600) scale(1, -1) rotate(-23.000000) translate(-285.887924, -307.885600) translate(268.387924, 286.385600)">
                <g id="share" transform="translate(18.166395, 13.008351) scale(1, -1) rotate(162.000000) translate(-18.166395, -13.008351) translate(4.166395, 4.008351)">
                    <path d="M27.0357504,5.58346072 C27.1128899,5.51626789 27.1668875,5.43998616 27.2101714,5.3594846 C27.223885,5.33481477 27.2328846,5.31144335 27.2427414,5.28644891 C27.2675974,5.22444973 27.2830253,5.16017832 27.2881679,5.09298548 C27.2907393,5.06831565 27.2958819,5.04494423 27.2950248,5.01962519 C27.2924535,4.9047157 27.2718829,4.82973239 27.24017,4.75929353 C27.1896008,4.6609388 27.1356032,4.59212294 27.0717488,4.52914995 C27.0657491,4.52330709 25.5856711,3.19935937 22.6315148,0.557306777 C22.2933867,0.255425921 21.738411,0.249583066 21.3912834,0.545296463 C21.0450128,0.840685257 21.0385845,1.32499304 21.3775697,1.6275231 L23.7594654,3.75334861 C20.2791892,3.40407571 16.8580534,3.95882235 16.696489,3.98608901 C8.38369953,5.12729679 1.98353786,9.9466581 0.304597188,15.6678519 C-0.149699606,17.2159233 1.5910611,17.6661466 1.89563835,16.4345084 C3.20934689,11.1221829 9.17545192,6.56858456 16.9964759,5.49451948 C17.0406168,5.48672901 20.5753191,4.91218157 23.9034591,5.30819732 L20.2277629,6.96140076 C19.7970675,7.15551339 19.6286463,7.61709896 19.850208,7.99266471 C20.0713412,8.36887967 20.5993181,8.51462645 21.0312992,8.32278603 L26.8253311,5.71687258 C26.9037562,5.68084164 26.9740388,5.63572182 27.0357504,5.58346072 Z" id="Shape"></path>
                </g>
                <g id="share" transform="translate(17.147043, 29.379023) rotate(163.000000) translate(-17.147043, -29.379023) translate(3.147043, 19.879023)">
                    <path d="M27.7115103,2.11501489 C27.7206527,2.09856833 27.7466516,2.00973529 27.7895069,1.84851577 C27.7920782,1.82384594 27.7972208,1.80047451 27.7963637,1.77515548 C27.7937924,1.66024599 27.7732219,1.58526268 27.741509,1.51482381 C27.7332501,1.49876065 27.7392463,1.26196359 27.5957727,1.21352333 C27.3009823,1.11399477 26.1893262,0.879113298 24.2608043,0.508878897 C20.7805282,0.159605993 17.3593923,0.714352641 17.197828,0.741619299 C7.99722736,2.00470878 0.918674195,7.83910446 0.212041617,14.3494812 C0.107473875,15.3128891 0.35853777,16.2269949 0.535700665,17.2106807 C0.603840538,17.5885187 0.976252796,17.85729 1.40094848,17.85729 C1.44637506,17.85729 1.49180164,17.8543686 1.53808533,17.8485257 C2.01635009,17.7826313 2.08268488,15.0357823 2.22074459,14.0877315 C3.04934215,8.39778316 9.23950929,3.38416694 17.4978148,2.25004977 C17.5419557,2.24225929 21.076658,1.66771186 24.404798,2.06372761 L27.32667,2.47240287 C27.3714704,2.45182018 27.5276777,2.39920974 27.6176127,2.31302203 C27.6851131,2.2483342 27.6929524,2.14952991 27.7115103,2.11501489 Z" id="Shape" transform="translate(13.991927, 9.125556) rotate(1.000000) translate(-13.991927, -9.125556) "></path>
                </g>
            </g>
        </g>
    </g>
</svg>