<svg xmlns="http://www.w3.org/2000/svg" xmlns:xlink="http://www.w3.org/1999/xlink" viewBox="0 0 344.75 100.16"><defs><style>.cls-1,.cls-8{fill:none;}.cls-2,.cls-3{isolation:isolate;}.cls-3{font-size:22px;font-family:Lato-Bold, Lato;font-weight:700;}.cls-3,.cls-6{fill:#ff9e00;}.cls-4{letter-spacing:-0.02em;}.cls-5{clip-path:url(#clip-path);}.cls-7{fill:#fff;}.cls-8{stroke:#ff9e00;stroke-width:3px;}</style><clipPath id="clip-path"><rect class="cls-1" x="0.06" y="16.16" width="325.94" height="84"/></clipPath></defs><title>Asset 1</title><g id="Layer_2" data-name="Layer 2"><g id="Layer_1-2" data-name="Layer 1"><g id="Physical-Health" class="cls-2"><text class="cls-3" transform="translate(10.93 65.13)">P<tspan class="cls-4" x="13.75" y="0">h</tspan><tspan x="25.86" y="0">ysical Health</tspan></text></g><rect class="cls-1" x="0.06" y="16.16" width="325.94" height="83.9"/><g class="cls-5"><g id="Group-7"><polygon id="Rectangle-8" class="cls-6" points="183.49 16.16 326 16.16 326 100.16 198.41 100.16 183.49 16.16"/><g id="Asset-3"><rect id="Rectangle-path" class="cls-7" x="222.02" y="39.42" width="113.67" height="7.64" transform="translate(2.03 97.98) rotate(-20)"/><rect id="Rectangle-path-2" data-name="Rectangle-path" class="cls-7" x="311.67" y="-0.5" width="13.38" height="60.19" rx="3.46" ry="3.46" transform="translate(9.08 110.67) rotate(-20)"/><path id="Shape" class="cls-7" d="M330.79,49.09,315.35,6.67l6.83-2.49a4.46,4.46,0,0,1,5.7,2.69l12.38,34a4.45,4.45,0,0,1-2.64,5.71Z"/><path id="Shape-2" data-name="Shape" class="cls-7" d="M337.07,37l-9.43-25.93L333,9.14a3.44,3.44,0,0,1,4.43,2l7.1,19.51a3.44,3.44,0,0,1-2.1,4.4Z"/><rect id="Rectangle-path-3" data-name="Rectangle-path" class="cls-7" x="220.91" y="33.42" width="13.38" height="60.19" rx="3.46" ry="3.46" transform="translate(-8 81.68) rotate(-20)"/><path id="Shape-3" data-name="Shape" class="cls-7" d="M231.39,86.16,216,43.73l-6.87,2.5a4.44,4.44,0,0,0-2.6,5.71l12.39,34a4.42,4.42,0,0,0,5.65,2.7Z"/><path id="Shape-4" data-name="Shape" class="cls-7" d="M218.82,81,209.39,55,204,57a3.46,3.46,0,0,0-2.11,4.4l7.1,19.5a3.46,3.46,0,0,0,4.45,2Z"/></g><rect id="Rectangle-7" class="cls-8" x="1.5" y="17.66" width="323" height="81"/></g></g></g></g></svg>