<svg xmlns="http://www.w3.org/2000/svg" xmlns:xlink="http://www.w3.org/1999/xlink" viewBox="0 0 348.51 86.95"><defs><style>.cls-1,.cls-5{fill:none;}.cls-2{clip-path:url(#clip-path);}.cls-3,.cls-7{fill:#ff5200;}.cls-4{fill:#fff;}.cls-5{stroke:#ff5200;stroke-width:3px;}.cls-6,.cls-7{isolation:isolate;}.cls-7{font-size:22px;font-family:Lato-Bold, Lato;font-weight:700;}</style><clipPath id="clip-path" transform="translate(-0.6)"><rect class="cls-1" y="2.88" width="327.6" height="84.07"/></clipPath></defs><title>Asset 2</title><g id="Layer_2" data-name="Layer 2"><g id="Layer_1-2" data-name="Layer 1"><g class="cls-2"><g id="Sprint-3"><g id="VIZ-Discover---UPDATED-NEW"><g id="Group-9"><g id="Group-5"><polygon id="Rectangle-8" class="cls-3" points="243.81 2.95 327 2.95 327 86.95 163 86.95 243.81 2.95"/><g id="Asset-6"><path id="Shape" class="cls-3" d="M237.84,10.81S289,25.57,295.22,28.54s10.3,6,17.61,22.24a302.58,302.58,0,0,0,14,27.53s2.51,5.4-3.26,4.2c-4.52-.94-8.12-3.55-8.64-5.79s-7-23.7-8.68-26.61-4.74-13.37-11.93-17.49S231,17.21,231,17.21Z" transform="translate(-0.6)"/><path id="Shape-2" data-name="Shape" class="cls-4" d="M207,0s82.44,24.39,88.62,27.33,10.3,6,17.63,22.26a307.35,307.35,0,0,0,14,27.51s2.53,5.41-3.24,4.21c-4.54-.93-8.12-3.55-8.66-5.8s-7-23.69-8.63-26.58-4.78-13.38-12-17.49-89.11-20.86-89.11-20.86Z" transform="translate(-0.6)"/><path id="Shape-3" data-name="Shape" class="cls-3" d="M327.44,38.59s-61.3-19.94-68.06-20.92-11.73-1-26.82,8.15A300.66,300.66,0,0,1,205.69,40.4c2.15-.86-.05,2.19-.55,3.4-.41,1-1.62.89.8,1.87,4.22,1.77,8.64,1.64,10.3.13s19.08-15.37,22-16.93,11.35-8.21,19.56-7.44,69.6,26.76,69.6,26.76Z" transform="translate(-0.6)"/><path id="Shape-4" data-name="Shape" class="cls-4" d="M347.29,43.93s-80.75-26.48-87.51-27.46S248,15.55,233,24.69a301.51,301.51,0,0,1-26.89,14.49s-5.11,3.09.27,5.29c4.22,1.77,8.63,1.66,10.29.14s19.07-15.32,22-16.79,11.41-8.17,19.58-7.51,84.23,33,84.23,33Z" transform="translate(-0.6)"/><path id="Shape-5" data-name="Shape" class="cls-4" d="M348.65,44.94a201.91,201.91,0,0,0-33.79-12.68c-11.75-2.91-14.85-2.43-20.48-1.7-4.44.47-11.26,2.69-15.91,2.16a23.54,23.54,0,0,1-3.8-.71,23.27,23.27,0,0,1-3.5-1.57c-4.16-2.21-8.54-7.85-11.9-10.78-4.3-3.75-6.56-6-17.86-10.26A202.38,202.38,0,0,0,206.28.64c-1.06-.1-1.5,2.17-1.5,2.17S203.38,7.7,202.94,9s.89,2.4,3.64,6.28-.82,15.35,1.45,24.42,12,15.87,20.62,18.68,17.47,1.77,22.87-2.37c4.65-3.59,11.63-12.12,14.18-14.24a7,7,0,0,1,10.73,3.34c.86,3.18,1.77,14.16,3.57,19.75,2.07,6.47,8.79,12.22,17.48,14.92s20.43,2.67,27.56-3.59,10.75-17.75,15.08-19.31,6.16-1.86,6.55-3.12,2-6.17,2-6.17S349.67,45.49,348.65,44.94ZM244.7,55.59c-8.64,3.63-22.89-2.65-28.66-8.12-6.85-6.46-5.67-18.22-4.72-26.06S217,9.22,223.21,9.57a70.29,70.29,0,0,1,15.38,3.29,56,56,0,0,1,13.57,6.52c11.48,7.44,9,16.09,8,19.37A30.18,30.18,0,0,1,244.7,55.59Zm88.06,3.73c-3.64,7-9.4,17.32-18.7,18.78-7.89,1.22-23.17-1.71-28.21-9.6a29.93,29.93,0,0,1-3.14-22.57c1-3.21,4-11.69,17.59-11.34A55.3,55.3,0,0,1,315.14,37a70.38,70.38,0,0,1,14.5,6C335.06,46,336.41,52.22,332.76,59.32Z" transform="translate(-0.6)"/></g><rect id="Rectangle-7" class="cls-5" x="1.5" y="4.45" width="324" height="81"/></g><g id="Productivity" class="cls-6"><text class="cls-7" transform="translate(11 51.95)">Productivity</text></g></g></g></g></g></g></g></svg>