<svg xmlns="http://www.w3.org/2000/svg" xmlns:xlink="http://www.w3.org/1999/xlink" viewBox="0 0 327 207"><defs><style>.cls-1,.cls-5{fill:none;}.cls-2{clip-path:url(#clip-path);}.cls-3,.cls-7{fill:#1ea09f;}.cls-4{fill:#fff;}.cls-5{stroke:#1ea09f;stroke-width:3px;}.cls-6,.cls-7{isolation:isolate;}.cls-7{font-size:22px;font-family:Lato-Bold, Lato;font-weight:700;}.cls-8{letter-spacing:-0.02em;}</style><clipPath id="clip-path"><rect class="cls-1" x="0.13" y="14.12" width="326.87" height="83.88"/></clipPath></defs><title>Img_MentalFV</title><g id="Layer_2" data-name="Layer 2"><g id="Layer_1-2" data-name="Layer 1"><g class="cls-2"><g id="VIZ-Discover---UPDATED-NEW"><g id="Group-10"><g id="Group-6"><polygon id="Rectangle-8" class="cls-3" points="144.26 14 327 14 327 98 243.38 98 144.26 14"/><g id="Rectangle"><g id="Mask"><path id="path-1" class="cls-4" d="M281.58,163.14c-.66,11.35-.45,22.75-2.24,34a9.79,9.79,0,0,1-8,8.89,36.88,36.88,0,0,1-24.25-2.71,9.79,9.79,0,0,1-5.59-8.48l-2.45-20c-.32-2.76-.81-5.44-4.39-4.42-6.3,1.76-5.11-2.4-4.24-6.09,1.32-5.52,4.1-10.33,8.14-16.28-9.06,3.57-16.69,6.23-24.84,5.51-7.71-.62-8.77-2.64-6.42-10.43,6.39-20.44,24.57-31.28,45.12-26.82,1.71.37,3.74,2.58,5.1-.14a6.16,6.16,0,0,0,0-4.51c-1.18-2.8-3.45-1.18-5-.56-7.31,2.78-14.91,2.18-22.37,3.12a114.77,114.77,0,0,0-28.79,7.68c8.66-14,21.47-20.44,37-23.21-7.16-3.75-15.2-4.49-19.59-12,2.68-.15,4.39,1.92,6.55,3.12,9.24,5.07,18.83,7.57,29.43,5.23-12.13-18.86-33.31-20.25-50.18-31.95,2.51,10.39,9.82,15.81,14,23.48-11.26-6.23-15.57-17.34-18.51-30a105.73,105.73,0,0,0,34.61,16.9c-8.77-9.34-11.69-20-15.78-30.06-1.46-3.56-1.46-5,3.08-4.48,18,2.08,30.2,11.85,36.94,31.15.36-8.74.53-16.29,1-23.82.26-3.86-2.32-5.46-4.38-7.6-12.69-13.47-10.73-28.33,4.83-37.46,3.7-2.18,5.56-1.71,7.08,2.63,4.05,11.59,4.38,22.82-2.15,33.52-4,6.47-2.06,13.4-2.4,22.59,3.1-4.24,5-6.68,6.79-9.35,9.5-14,22.86-17.43,38.1-15.78,5.32.58,4.39,3.32,2.31,6.78C300.84,56.92,289,67.77,271.2,70.13c-10.07,1.34-10.38,2.53-9,14.71,15.38-20.25,34-18.32,53.66-9.91,1.46.65,3.7.81,3.67,3.12,0,1.66-1.95,2-3.14,2.89C301.05,91.85,284.74,99,265.75,96.78c-4.58-.54-4.12,3.12-4.24,6.23-.16,4.35,2.09,4.68,5.2,3.6,17.54-5.82,35.08-3.36,52.73-.14,1.46.27,3.2.11,3.52,2s-1.37,2.57-2.57,3.33c-16.56,10.5-33.71,14.55-52.11,5.42-1.89-.93-4-3.44-5.85-1.7s-.89,4.89-.75,7.45c.18,3,2.34,3.67,4.65,3.86C281.94,128,296.61,134,314,137.3c-7.63,5.46-14.12,9.34-21.72,10.9-4.18.84-9,.47-6.83,8a5.79,5.79,0,0,1-.53,4.28,5.16,5.16,0,0,1-3.28,2.55c-.65-1.87,2.15-6.38-2.62-5.06-8.58,2.38-17.26,2.42-26,2.54-2,0-4.55.48-4.57,2.82,0,3.44,3.12,2.4,5,2.55C263,166.6,272.37,166.33,281.58,163.14Zm-38.18-45c-14.62,0-29.31,11.25-32.89,24.31-1.46,5.46-.82,8.37,5.31,8.06,13.69-.7,25.71-5,34.26-17.14,2.4-3.41,7-6.91,5.22-11.17C253.16,117.11,247.3,118.64,243.4,118.17Zm71.36-40.06a45.62,45.62,0,0,0-20.38-6c-11.43-.53-21.59,3.46-28.79,13.65-1.29,1.84-3,3.88-2.08,6.32s3.71,1.9,5.85,2.11C286.36,95.83,300.58,88.36,314.76,78.11Zm-57.29,1.94c-.57-16.66-16.07-35.12-31.17-37.38-2.39-.36-3.64-.45-3.26,2.92,1.53,14.51,17.44,34,30.77,37.72C256.89,84.2,257.8,83.19,257.47,80.05Zm6.66-12c18.22-.47,31.74-9.53,41.87-25.26,2.45-3.8,1.38-4.77-2.31-5.32C287.28,35,268,49.84,264.13,68Zm.3,43.27c14.93,11.15,37.55,10.27,51.51-1.56a83.3,83.3,0,0,0-51.51,1.51ZM268,19.2c.32-4.39-1.67-8.36-2.69-12.59-.66-2.68-1.9-3-4.27-2.15A17.51,17.51,0,0,0,250.8,15.8a18.89,18.89,0,0,0,2.09,15.55c1.92,2.93,4.16,6.84,7.49,6.71,3.76-.15,4.39-5,5.65-8.19A24.67,24.67,0,0,0,268,19.15Zm9.65,150.59c-11.59,7.79-16.52,7.79-27,.36-2.54-1.83-5.5-4.77-8.39-1.87-2.66,2.68-.6,6.38.42,9.45s3.82,4.67,6.73,5.3A90.93,90.93,0,0,0,263,185.55c14.82,1,17-4.1,14.63-15.81Zm26.83-30.48c-7-2.09-13.68-4.32-20.46-6a113.47,113.47,0,0,0-14.41-2.21c-1.79-.18-4.3-1.34-5.25,1s1.46,3.61,2.7,5c9.49,10.36,25.51,11.39,37.42,2.06Zm-61.07,44.53c-1.28,2.26-.51,4.67.82,5,8.51,1.89,13.49,9.49,20.47,13.69,3.36,2,7.31,2,10.07-1.3,3.08-3.73,2.18-8.82,2.69-13.37.13-1.21-1.22-1.46-2.21-1.14C264.27,190.32,253.81,186.91,243.38,183.84Zm13.35-77.52c-14.62-7.39-36.22-2.89-43.65,8.52C227.07,109,241.62,111.85,256.73,106.32Zm-23.89,61.54a36.71,36.71,0,0,0,20.73-16.79c1-1.66,2.85-3.49,1.35-5.5s-3.69-1.14-5.5-.58C239.29,148.2,235.49,156.81,232.84,167.86Z"/></g></g><rect id="Rectangle-7" class="cls-5" x="1.5" y="15.5" width="324" height="81"/></g><g id="Mental-Wellness" class="cls-6"><text class="cls-7" transform="translate(11 64)">Mental <tspan class="cls-8" x="74.96" y="0">W</tspan><tspan x="97.54" y="0">ellness</tspan></text></g></g></g></g></g></g></svg>