<?xml version="1.0" encoding="UTF-8"?>
<svg width="375px" height="283px" viewBox="0 0 375 283" version="1.1" xmlns="http://www.w3.org/2000/svg" xmlns:xlink="http://www.w3.org/1999/xlink">
    <!-- Generator: Sketch 50.2 (55047) - http://www.bohemiancoding.com/sketch -->
    <title>Group 2</title>
    <desc>Created with Sketch.</desc>
    <defs></defs>
    <g id="Sprint-1" stroke="none" stroke-width="1" fill="none" fill-rule="evenodd">
        <g id="2.1-Log-In-Screen">
            <g id="Group-2">
                <polygon id="Rectangle-8" fill="#85C8FF" points="0 114.867792 375 114.867792 375 281.810505 0 281.810505"></polygon>
                <polygon id="Path-4" fill="#CFE9FF" points="196.709352 282 251.924685 231.612231 339.428952 241.438342 374.77338 201 374.77338 282"></polygon>
                <polygon id="Rectangle-2" fill="#0477D6" points="0 0 375 0 375 131.081806 0 283.020845"></polygon>
                <g id="Group" transform="translate(60.000000, 63.000000)" fill="#FFFFFF">
                    <path d="M25,1.20218579 L39.0756621,1.20218579 L51.07264,22.2937544 L51.3102039,22.2937544 L50.7162941,1.20218579 L64.1386555,1.20218579 L64.1386555,42.7978142 L49.7066475,42.7978142 L38.0660155,22.9400142 L37.8284516,22.9400142 L38.4223614,42.7978142 L25,42.7978142 L25,1.20218579 Z M72.1113445,22 C72.1113445,18.66665 72.7062064,15.6470724 73.8959481,12.9411765 C75.0856898,10.2352806 76.7116457,7.92157824 78.7738645,6 C80.8360834,4.07842176 83.2651029,2.59804441 86.0609958,1.55882353 C88.8568887,0.519602647 91.8411126,0 95.013757,0 C98.2657176,0 101.339171,0.519602647 104.234209,1.55882353 C107.129247,2.59804441 109.548352,3.99999118 111.491597,5.76470588 L102.806526,16.1176471 C102.013365,15.0980341 101.021928,14.3235321 99.8321867,13.7941176 C98.642445,13.2647032 97.3139201,13 95.846572,13 C94.6568304,13 93.5464215,13.2058803 92.515312,13.6176471 C91.4842026,14.0294138 90.5819953,14.6274471 89.8086633,15.4117647 C89.0353312,16.1960824 88.4305549,17.1470532 87.9943163,18.2647059 C87.5580777,19.3823585 87.3399617,20.6274441 87.3399617,22 C87.3399617,23.3725559 87.5679921,24.5980338 88.0240597,25.6764706 C88.4801273,26.7549074 89.094818,27.6862706 89.8681501,28.4705882 C90.6414821,29.2549059 91.5436894,29.8529391 92.5747988,30.2647059 C93.6059082,30.6764726 94.6964884,30.8823529 95.846572,30.8823529 C97.4725523,30.8823529 98.8704778,30.5490229 100.04039,29.8823529 C101.210303,29.2156829 102.132339,28.4313771 102.806526,27.5294118 L111.491597,37.8235294 C109.58801,39.7058918 107.24822,41.2058768 104.472156,42.3235294 C101.696092,43.4411821 98.5433239,44 95.013757,44 C91.8411126,44 88.8568887,43.4705935 86.0609958,42.4117647 C83.2651029,41.3529359 80.8360834,39.8529509 78.7738645,37.9117647 C76.7116457,35.9705785 75.0856898,33.6568762 73.8959481,30.9705882 C72.7062064,28.2843003 72.1113445,25.2941341 72.1113445,22 Z M117.289916,1.20218579 L131.572092,1.20218579 L131.572092,30.8126331 L145.556723,30.8126331 L145.556723,42.7978142 L117.289916,42.7978142 L117.289916,1.20218579 Z M152.079832,1.20218579 L166.334034,1.20218579 L166.334034,42.7978142 L152.079832,42.7978142 L152.079832,1.20218579 Z M176.239496,1.20218579 L190.315158,1.20218579 L202.312136,22.2937544 L202.5497,22.2937544 L201.95579,1.20218579 L215.378151,1.20218579 L215.378151,42.7978142 L200.946143,42.7978142 L189.305511,22.9400142 L189.067947,22.9400142 L189.661857,42.7978142 L176.239496,42.7978142 L176.239496,1.20218579 Z M225.042017,1.20218579 L253.989512,1.20218579 L253.989512,12.8348615 L238.356676,12.8348615 L238.356676,16.4186657 L253.038465,16.4186657 L253.038465,27.2875799 L238.356676,27.2875799 L238.356676,31.1651385 L255,31.1651385 L255,42.7978142 L225.042017,42.7978142 L225.042017,1.20218579 Z" id="INCLINE"></path>
                    <path d="M14,9.38677376 L1.77635684e-15,16.3042469 L0,2 L14,2 L14,9.38677376 Z M14,15.9251444 L14,44 L0,44 L0,22.8426175 L14,15.9251444 Z" id="Combined-Shape"></path>
                </g>
            </g>
        </g>
    </g>
</svg>