<svg xmlns="http://www.w3.org/2000/svg" xmlns:xlink="http://www.w3.org/1999/xlink" width="375" height="139" viewBox="0 0 375 139">
    <defs>
        <path id="a" d="M0 0h376v139H0z"/>
    </defs>
    <g fill="none" fill-rule="evenodd" transform="translate(-1)">
        <mask id="b" fill="#fff">
            <use xlink:href="#a"/>
        </mask>
        <use fill="#00B39F" fill-opacity=".5" xlink:href="#a"/>
        <g fill-rule="nonzero" mask="url(#b)">
            <path fill="#FFF" d="M123.09 230.033c-.888 15.524-.612 31.112-3.019 46.53-.603 6.236-5.044 11.24-10.79 12.159-10.995 2.556-22.46 1.258-32.725-3.706-4.357-2-7.28-6.502-7.535-11.605l-3.314-27.364c-.434-3.77-1.085-7.432-5.918-6.048-8.501 2.407-6.904-3.28-5.72-8.326 1.775-7.538 5.523-14.118 10.987-22.253-12.23 4.876-22.527 8.518-33.534 7.538-10.395-.851-11.835-3.62-8.66-14.267 8.621-27.939 33.16-42.76 60.894-36.67 2.308.511 5.05 3.535 6.885-.191a8.504 8.504 0 0 0 0-6.155c-1.598-3.833-4.656-1.618-6.826-.766-9.862 3.79-20.12 2.981-30.18 4.259a153.39 153.39 0 0 0-38.86 10.498c11.698-19.165 28.977-27.939 49.926-31.73-9.665-5.131-20.515-6.132-26.432-16.375 3.61-.213 5.917 2.62 8.837 4.26 12.466 6.941 25.407 10.348 39.708 7.154C70.44 111.187 41.859 109.292 19.095 93.3c3.393 14.203 13.256 21.614 18.878 32.09-15.189-8.517-21.008-23.7-24.973-40.949 14.192 10.604 30.004 18.425 46.71 23.105-11.835-12.777-15.78-27.343-21.303-41.1-1.973-4.876-1.973-6.835 4.162-6.132 24.282 2.854 40.753 16.205 49.847 42.59.493-11.947.71-22.275 1.42-32.56.355-5.281-3.136-7.475-5.918-10.392-17.122-18.42-14.478-38.735 6.53-51.214 4.99-2.981 7.495-2.342 9.547 3.599 5.464 15.843 5.918 31.197-2.9 45.826-5.346 8.838-2.781 18.314-3.235 30.878 4.182-5.792 6.786-9.136 9.153-12.777 12.822-19.165 30.85-23.829 51.425-21.572 7.18.788 5.918 4.536 3.117 9.263-12.467 20.87-28.504 35.69-52.47 38.927-13.592 1.832-14.006 3.45-12.093 20.103 20.752-27.684 45.941-25.043 72.413-13.544 1.973.894 4.991 1.107 4.952 4.259 0 2.279-2.624 2.81-4.241 3.96-20.752 14.907-42.766 24.745-68.39 21.658-6.174-.746-5.562 4.259-5.72 8.518-.217 5.94 2.82 6.388 7.022 4.919 23.671-7.965 47.342-4.6 71.151-.192 1.973.362 4.32.149 4.754 2.768.434 2.62-1.854 3.514-3.472 4.557-22.35 14.353-45.487 19.89-70.322 7.41-2.545-1.277-5.444-4.705-7.89-2.32-2.446 2.385-1.204 6.686-1.006 10.179.236 4.13 3.156 5.025 6.272 5.28 21.067 1.62 40.852 9.775 64.365 14.268-10.296 7.475-19.055 12.777-29.312 14.907-5.642 1.15-12.19.638-9.212 10.945a8.04 8.04 0 0 1-.721 5.864c-.973 1.766-2.572 3.025-4.427 3.485-.868-2.556 2.9-8.731-3.531-6.921-11.58 3.258-23.296 3.3-35.053 3.47-2.702 0-6.135.66-6.154 3.855 0 4.706 4.201 3.28 6.746 3.492 12.762.959 25.446.597 37.873-3.769zm-51.524-61.478c-19.726 0-39.55 15.375-44.383 33.241-1.973 7.454-1.105 11.436 7.16 11.01 18.483-.958 34.698-6.878 46.237-23.424 3.235-4.664 9.469-9.455 7.042-15.269-2.88-7.006-10.79-4.919-16.056-5.558zm96.3-54.77c-8.48-4.934-17.875-7.757-27.497-8.262-15.425-.724-29.135 4.727-38.86 18.654-1.735 2.513-4.103 5.302-2.8 8.646 1.301 3.343 5.01 2.598 7.89 2.875 22.94 2.32 42.134-7.9 61.268-21.913zm-77.304 2.662c-.77-22.785-21.699-48.02-42.075-51.107-3.216-.49-4.912-.618-4.4 3.982 2.072 19.846 23.534 46.444 41.523 51.576 4.163 1.213 5.386-.17 4.952-4.451zm8.975-16.44c24.598-.638 42.844-13.032 56.514-34.54 3.294-5.196 1.854-6.516-3.117-7.261-22.152-3.322-48.229 16.93-53.397 41.801zm.414 59.157c20.14 15.247 50.675 14.034 69.514-2.13-22.848-6.777-47.047-6.058-69.514 2.066v.064zm4.774-125.916c.434-6.005-2.249-11.435-3.63-17.206-.888-3.662-2.564-4.13-5.76-2.938-6.557 2.6-11.64 8.314-13.781 15.491-2.142 7.178-1.104 15.02 2.814 21.263 2.604 4.004 5.622 9.349 10.119 9.178 5.07-.213 5.918-6.814 7.614-11.2a33.904 33.904 0 0 0 2.624-14.651v.063zm13.019 205.878c-15.643 10.648-22.29 10.648-36.394.49-3.433-2.492-7.417-6.516-11.323-2.555-3.59 3.662-.809 8.73.572 12.925 1.381 4.196 5.149 6.389 9.074 7.24a120.916 120.916 0 0 0 18.325 3.45c20.002 1.406 23-5.6 19.746-21.614v.064zm36.216-41.674c-9.468-2.853-18.463-5.898-27.616-8.177a149.307 149.307 0 0 0-19.45-3.024c-2.406-.255-5.799-1.831-7.081 1.427s1.973 4.94 3.65 6.9c12.801 14.16 34.42 15.566 50.497 2.81v.064zm-82.414 60.882c-1.736 3.088-.69 6.388 1.105 6.814 11.48 2.577 18.206 12.969 27.616 18.718 4.537 2.79 9.863 2.705 13.59-1.788 4.163-5.09 2.94-12.053 3.63-18.271.178-1.661-1.637-2.002-2.978-1.555-14.775 4.94-28.899.277-42.963-3.918zm18.01-105.984c-19.726-10.094-48.88-3.94-58.901 11.648 18.877-7.964 38.504-4.088 58.9-11.648zm-32.232 84.136c11.63-3.658 21.595-11.836 27.97-22.956 1.362-2.257 3.847-4.77 1.816-7.517-2.032-2.747-4.971-1.555-7.417-.788-13.67 4.387-18.799 16.163-22.37 31.26z"/>
            <path fill="#489882" stroke="#FFF" stroke-width="5" d="M391.274 25.586H184.656a89.74 89.74 0 0 0-63.517 26.358 90.048 90.048 0 0 0-26.3 63.629v31.157h386.236v-31.157a90.032 90.032 0 0 0-26.29-63.628 89.724 89.724 0 0 0-63.511-26.359z"/>
            <g fill="#FFF">
                <path d="M295.961 143.572a651.302 651.302 0 0 1 101.518 0c1.82.13 3.082-1.468 2.852-3.571a322.146 322.146 0 0 1 0-78.05c.23-2.102-1.032-3.7-2.852-3.57a651.302 651.302 0 0 1-101.518 0c-1.802-.13-3.08 1.468-2.851 3.57a322.146 322.146 0 0 1 0 78.05c-.23 2.12 1.049 3.75 2.851 3.57z"/>
                <path d="M293.06 61.952a3.96 3.96 0 0 1 .295-2.006l.558.783a46.258 46.258 0 0 1 4.917 9.783 53.587 53.587 0 0 1 3.835 13.728c.304 4.45.09 8.92-.64 13.32-1.229 9.783-2.687 20.12-4.441 30.294a228.26 228.26 0 0 1-.787 4.419c-.606 3.049.23 5.462 2.344 6.13a37.887 37.887 0 0 0 11.571.995c3.934 0 7.933-.18 11.932-.212 5.54 0 11.145 0 16.8-.098 3.556-.098 7.129-.326 10.686-.391 9.145-.114 18.286.486 27.338 1.793a31 31 0 0 1 7.473 1.63c.492.18.967.392 1.459.604a638.452 638.452 0 0 0-90.439.733 2.496 2.496 0 0 1-2.229-1.01l-.147-.245-.131-.245a1.43 1.43 0 0 1-.082-.244.227.227 0 0 1 0-.114.925.925 0 0 1 0-.229v-.13a1.249 1.249 0 0 1 0-.245.406.406 0 0 1 0-.13 1.622 1.622 0 0 1 0-.277v-.098-.408c0-.521.131-1.027.18-1.63a320.232 320.232 0 0 0-.492-76.5z"/>
            </g>
            <g fill="#FFF">
                <path d="M176.113 143.572a658.89 658.89 0 0 1 102.192 0c1.813.13 3.082-1.468 2.851-3.571a320.345 320.345 0 0 1 0-78.05c.231-2.102-1.038-3.7-2.851-3.57a658.89 658.89 0 0 1-102.11 0c-1.813-.13-3.082 1.468-2.851 3.57a320.345 320.345 0 0 1 0 78.05c-.313 2.12.989 3.75 2.769 3.57z"/>
                <path d="M173.261 61.952a3.778 3.778 0 0 1 .28-2.006l.56.783a46.157 46.157 0 0 1 4.946 9.783 53.353 53.353 0 0 1 3.857 13.728c.305 4.45.09 8.92-.643 13.32-1.236 9.783-2.703 20.12-4.45 30.294-.264 1.468-.511 2.935-.808 4.419-.61 3.049.23 5.462 2.357 6.13a38.31 38.31 0 0 0 11.637.995c3.955 0 7.977-.18 12.015-.212 5.555 0 11.192 0 16.879-.098 3.593-.098 7.17-.326 10.746-.391 9.181-.112 18.357.488 27.444 1.793 2.564.233 5.088.78 7.516 1.63.494.18.972.392 1.467.604a645.712 645.712 0 0 0-90.951.733 2.516 2.516 0 0 1-2.242-1.01.912.912 0 0 1-.165-.245 1.622 1.622 0 0 1-.115-.245v-.244a1.032 1.032 0 0 1 0-.114 1.613 1.613 0 0 0 0-.229v-.13a1.242 1.242 0 0 1 0-.245v-.13a1.613 1.613 0 0 1 0-.277v-.098a3.693 3.693 0 0 1 0-.408c0-.521.115-1.027.165-1.63a319.361 319.361 0 0 0-.495-76.5z"/>
            </g>
            <g fill="#6BDDCB">
                <path d="M302.459 143.146a660.898 660.898 0 0 1 87.95 0 2.29 2.29 0 0 0 1.9-.707c.486-.518.697-1.23.57-1.924a201.229 201.229 0 0 1 0-57.442 2.208 2.208 0 0 0-.562-1.931 2.273 2.273 0 0 0-1.908-.7 666.38 666.38 0 0 1-87.95 0c-.713-.08-1.42.18-1.908.7a2.208 2.208 0 0 0-.561 1.93 202.36 202.36 0 0 1 0 57.443 2.224 2.224 0 0 0 .57 1.924 2.29 2.29 0 0 0 1.899.707z"/>
                <path d="M299.99 83.057a2.346 2.346 0 0 1 .245-1.485l.474.58a31.757 31.757 0 0 1 4.333 7.232 35.183 35.183 0 0 1 3.27 10.087c.257 3.28.07 6.58-.556 9.813-1.079 7.23-2.338 14.817-3.842 22.29-.229 1.08-.441 2.178-.703 3.227-.523 2.244.196 4.02 2.044 4.52 3.287.686 6.652.935 10.006.742 3.418 0 6.884-.145 10.35-.161h14.553c3.09 0 6.18-.243 9.254-.291 7.87-.085 15.735.352 23.545 1.307 2.22.191 4.411.613 6.54 1.26.41.128.834.29 1.26.451a646.854 646.854 0 0 0-78.353.533 2.355 2.355 0 0 1-1.946-.743.71.71 0 0 1-.13-.177l-.115-.178v-.436-.096a.574.574 0 0 1 0-.178V140.886v-.307l.147-1.146a201.021 201.021 0 0 0-.376-56.376z"/>
            </g>
            <g fill="#6BDDCB">
                <path d="M182.183 143.146a660.898 660.898 0 0 1 88.032 0 2.29 2.29 0 0 0 1.9-.707c.485-.518.696-1.23.569-1.924a201.229 201.229 0 0 1 0-57.442 2.208 2.208 0 0 0-.553-1.943 2.273 2.273 0 0 0-1.916-.704 666.38 666.38 0 0 1-87.95 0c-.713-.08-1.421.18-1.908.7a2.208 2.208 0 0 0-.562 1.93 202.36 202.36 0 0 1 0 57.443c-.127.681.07 1.382.538 1.9.466.518 1.15.793 1.85.747z"/>
                <path d="M179.714 83.057a2.457 2.457 0 0 1 .245-1.485l.474.58a31.757 31.757 0 0 1 4.333 7.232 35.183 35.183 0 0 1 3.27 10.087 35.918 35.918 0 0 1-.49 9.78c-1.08 7.264-2.355 14.85-3.843 22.322a66.399 66.399 0 0 1-.703 3.228c-.523 2.244.213 4.02 2.044 4.52 3.287.685 6.653.934 10.007.742 3.417 0 6.883-.145 10.35-.161h14.552c3.09 0 6.18-.243 9.254-.291 7.87-.085 15.736.352 23.545 1.307 2.22.19 4.412.612 6.54 1.26.41.128.835.29 1.26.451a646.887 646.887 0 0 0-78.37.517 2.387 2.387 0 0 1-1.896-.759.71.71 0 0 1-.13-.177l-.099-.178v-.436-.097-.177-.387a1.928 1.928 0 0 1 0-.307l.147-1.146a201.021 201.021 0 0 0-.49-56.425z"/>
            </g>
        </g>
    </g>
</svg>
