<?xml version="1.0" encoding="UTF-8"?>
<svg width="327px" height="84px" viewBox="0 0 327 84" version="1.1" xmlns="http://www.w3.org/2000/svg" xmlns:xlink="http://www.w3.org/1999/xlink">
  <!-- Generator: Sketch 49.3 (51167) - http://www.bohemiancoding.com/sketch -->
  <title>Group 10 + Group 13 Mask</title>
  <desc>Created with Sketch.</desc>
  <defs>
    <style type="text/css">
      @font-face {
        font-family: Lato;
        src: url('../fonts/Lato/Lato-Regular.ttf');
      }
    </style>
    <rect id="path-1" x="0" y="0" width="327" height="84"></rect>
    <path d="M81.5787823,163.137434 C80.9210068,174.492359 81.1256481,185.894011 79.3423455,197.171055 C78.8949539,201.733046 75.6047495,205.392895 71.3467186,206.064967 C63.198698,207.934556 54.7034076,206.985105 47.0967276,203.354738 C43.8679754,201.892086 41.7018208,198.598916 41.5129442,194.865803 L39.0572489,174.850607 C38.7356698,172.09365 38.2533011,169.414573 34.6720788,170.427015 C28.372051,172.187106 29.5560469,168.028307 30.433081,164.336788 C31.748632,158.822875 34.5259064,154.009882 38.5748802,148.059839 C29.5121952,151.62675 21.8819991,154.290251 13.7255826,153.573753 C6.02230036,152.950712 4.95524229,150.925829 7.30861694,143.137815 C13.6963482,122.702066 31.8801871,111.861151 52.432018,116.315895 C54.1422343,116.68972 56.1740298,118.901516 57.5334326,116.175711 C58.1027602,114.736542 58.1027602,113.113408 57.5334326,111.674239 C56.3494366,108.870554 54.0837654,110.490461 52.4758697,111.113502 C45.1672527,113.886035 37.5662911,113.294146 30.1115018,114.228707 C20.2532281,115.517917 10.5816622,118.097022 1.31555105,121.907689 C9.98357074,107.889264 22.7882676,101.471941 38.31177,98.6994076 C31.1493254,94.945585 23.1098468,94.2135117 18.7246766,86.7214423 C21.3996304,86.5656821 23.1098468,88.6372937 25.2731974,89.8366479 C34.5112892,94.9144329 44.1001946,97.4065973 54.6976892,95.0701932 C42.5653851,76.2076236 21.3850132,74.8213572 4.51672527,63.1237603 C7.0308895,73.5129708 14.3395064,78.9334285 18.5054181,86.5968341 C7.25014801,80.366423 2.93806401,69.2607153 0,56.6441328 C10.5167052,64.4002847 22.2337185,70.1210809 34.6136098,73.5441229 C25.8432695,64.1985063 22.9198227,53.5445033 18.8269972,43.4823894 C17.3652739,39.915479 17.3652739,38.4824845 21.9112336,38.9964934 C39.9050485,41.0836811 52.1104388,50.8498505 58.8489836,70.1485488 C59.2144145,61.4103973 59.375204,53.8560238 59.9014245,46.3328025 C60.1645347,42.4699476 57.5772843,40.8656167 55.5162543,38.7317009 C42.8284953,25.258437 44.7872046,10.3989065 60.3545587,1.27135427 C64.0527189,-0.909289612 65.9091076,-0.44200878 67.4292999,3.90370295 C71.4782737,15.4922676 71.8144701,26.7225836 65.2805665,37.4233146 C61.3192962,43.8873661 63.2195366,50.8186984 62.8833402,60.0085548 C65.9821938,55.7718753 67.9116686,53.3264389 69.6657367,50.6629382 C79.1669387,36.6445132 92.5270905,33.2333631 107.772865,34.8844221 C113.093539,35.4607351 112.158036,38.202116 110.082388,41.6599941 C100.844297,56.9245013 88.9604854,67.7654166 71.2005463,70.1329728 C61.1292721,71.4725112 60.8223102,72.6562893 62.2401819,84.836743 C77.6175119,64.5879069 96.2837196,66.5193344 115.900047,74.9303894 C117.361771,75.5845825 119.598208,75.7403428 119.568973,78.0455949 C119.568973,79.7122299 117.624881,80.1016306 116.426268,80.942736 C101.048938,91.8459555 84.7361048,99.0420803 65.748318,96.7835562 C61.1731238,96.2383953 61.6262581,99.8987618 61.5093202,103.013967 C61.3485306,107.359679 63.5995846,107.686776 66.7130555,106.61203 C84.2537361,100.786595 101.794417,103.247608 119.437418,106.471845 C120.899141,106.736638 122.638592,106.580878 122.960171,108.496729 C123.281751,110.41258 121.586151,111.066774 120.387538,111.829999 C103.826212,122.328242 86.6801969,126.378009 68.2770995,117.250457 C66.3914763,116.315895 64.2427429,113.808155 62.4302059,115.55267 C60.6176689,117.297185 61.5385547,120.443542 61.684727,122.998011 C61.8601338,126.01976 64.0234844,126.673953 66.3330074,126.860866 C81.9442132,128.044644 96.6052988,134.010262 114.029042,137.296804 C106.398845,142.76399 99.9087936,146.642421 92.307832,148.200024 C88.1273031,149.041129 83.2743815,148.667305 85.4815838,156.206102 C85.8609175,157.653469 85.6677822,159.203211 84.947094,160.494915 C84.2264059,161.786619 83.0409737,162.707711 81.6664857,163.043978 C81.0233274,161.174855 83.8152191,156.657807 79.0500009,157.981769 C70.4696846,160.364901 61.7870476,160.396053 53.0751762,160.520662 C51.0726152,160.520662 48.5292165,161.003519 48.5145993,163.339923 C48.5145993,166.782225 51.6280701,165.738631 53.5136933,165.894391 C62.9710436,166.595312 72.369925,166.33052 81.5787823,163.137434 Z M43.3985674,118.169442 C28.7813335,118.169442 14.0910135,129.415334 10.5097912,142.483622 C9.04806778,147.935231 9.69122607,150.847948 15.8158471,150.536428 C29.5121952,149.835507 41.5275615,145.505371 50.0786433,133.402797 C52.4758697,129.991647 57.0949156,126.487041 55.2969958,122.234786 C53.1628796,117.110272 47.3013689,118.636723 43.3985674,118.169442 Z M114.759903,78.107899 C108.475951,74.4987107 101.513685,72.4337535 94.3834792,72.0644002 C82.9528023,71.5348153 72.7938248,75.5222784 65.5875284,85.7090005 C64.3012119,87.5469718 62.5471438,89.5874314 63.5118812,92.0328678 C64.4766187,94.4783041 67.2246586,93.9331432 69.3587748,94.1356315 C86.3586178,95.8334185 100.581186,88.3569252 114.759903,78.107899 Z M57.4749636,80.0549025 C56.9048915,63.3885528 41.3960064,44.93096 26.2964038,42.6724359 C23.9137946,42.3141873 22.6567125,42.2207311 23.0367606,45.5851531 C24.5715702,60.102011 40.4751206,79.5564696 53.8060379,83.3102923 C56.8902743,84.1981258 57.7965428,83.185684 57.4749636,80.0549025 Z M64.1258051,68.0302091 C82.3534957,67.5629282 95.8744371,58.4976801 106.00418,42.7658921 C108.445258,38.9653413 107.3782,37.9996276 103.694657,37.4544667 C87.2795035,35.0246063 67.9555203,49.8374087 64.1258051,68.0302091 Z M64.432767,111.300414 C79.3569628,122.45285 101.984441,121.565016 115.943899,109.742811 C99.0135905,104.785402 81.0815227,105.311368 64.432767,111.253686 L64.432767,111.300414 Z M67.9701376,19.1993622 C68.2917167,14.8069224 66.3037729,10.8350353 65.2805665,6.61393178 C64.622791,3.93485501 63.3803261,3.5921824 61.0123342,4.46443995 C56.1535819,6.36641564 52.3868942,10.5457689 50.7997796,15.7958474 C49.212665,21.0459258 49.9818112,26.7822577 52.8851522,31.3486638 C54.8146271,34.276957 57.0510639,38.18654 60.3837932,38.0619317 C64.1404223,37.9061715 64.7689634,33.0776029 66.0260455,29.8689412 C67.4648735,26.5125026 68.1313589,22.8386733 67.9701376,19.1526341 L67.9701376,19.1993622 Z M77.6175119,169.788398 C66.0260455,177.576412 61.1000376,177.576412 50.6487154,170.146647 C48.1053167,168.324252 45.1526355,165.380382 42.2584232,168.277523 C39.5980866,170.9566 41.6591166,174.663695 42.6823229,177.732172 C43.7055293,180.80065 46.497421,182.404981 49.4062505,183.028022 C53.8701352,184.214753 58.4082994,185.058031 62.9856608,185.551338 C77.807536,186.579356 80.0293555,181.454843 77.6175119,169.74167 L77.6175119,169.788398 Z M104.454753,139.306112 C97.4384811,137.218924 90.7730224,134.991552 83.9906259,133.324917 C79.2333794,132.274375 74.4201466,131.535723 69.5780333,131.113121 C67.7947308,130.926209 65.2805665,129.773583 64.3304463,132.156715 C63.3803261,134.539847 65.7921697,135.770354 67.0346346,137.203348 C76.5212194,147.561407 92.5417077,148.589424 104.454753,139.259384 L104.454753,139.306112 Z M43.3839502,183.837975 C42.0976336,186.096499 42.872347,188.510783 44.2025153,188.822304 C52.7097454,190.707003 57.6942221,198.308105 64.6666427,202.513632 C68.0286065,204.554092 71.9752597,204.491788 74.7379169,201.205246 C77.8221532,197.482575 76.9158847,192.389214 77.4274879,187.841014 C77.559043,186.626084 76.2142575,186.376868 75.2202856,186.703964 C64.2719774,190.317603 53.8060379,186.906453 43.3839502,183.837975 Z M56.7294847,106.316085 C42.1122508,98.9330481 20.5079791,103.43452 13.0824243,114.836172 C27.0711172,109.010738 41.6152649,111.845575 56.7294847,106.316085 Z M32.8449245,167.856971 C41.4637766,165.181555 48.8476024,159.199981 53.5721622,151.066013 C54.5807513,149.414954 56.4225228,147.576983 54.9169477,145.567675 C53.4113726,143.558367 51.2334048,144.430625 49.4208678,144.991362 C39.2911247,148.200024 35.4906439,156.813567 32.8449245,167.856971 Z"
      id="path-3"></path>
  </defs>
  <g id="Sprint-3" stroke="none" stroke-width="1" fill="none" fill-rule="evenodd">
    <g id="VIZ-Discover---UPDATED-NEW" transform="translate(-24.000000, -231.000000)">
      <g id="Group-10-+-Group-13-Mask" transform="translate(24.000000, 231.000000)">
        <mask id="mask-2" fill="white">
          <use xlink:href="#path-1"></use>
        </mask>
        <use id="Mask" fill="#FFFFFF" xlink:href="#path-1"></use>
        <g id="Group-10" mask="url(#mask-2)">
          <g transform="translate(0.000000, -14.000000)">
            <g id="Group-6" stroke-width="1" fill-rule="evenodd">
              <polygon id="Rectangle-8" fill="#1EA09F" points="144.257937 14 327 14 327 98 243.378959 98"></polygon>
              <g id="Rectangle" transform="translate(200.000000, 0.000000)">
                <mask id="mask-4" fill="white">
                  <use xlink:href="#path-3"></use>
                </mask>
                <use id="Mask" fill="#FFFFFF" fill-rule="nonzero" xlink:href="#path-3"></use>
              </g>
              <rect id="Rectangle-7" stroke="#1EA09F" stroke-width="3" x="1.5" y="15.5" width="324" height="81"></rect>
            </g>
            <text id="Mental-Wellness"  font-family="Lato" font-size="22" font-weight="bold" line-spacing="26">
              <tspan x="11" y="67" fill="#1EA09F">Mental Wellness</tspan>
            </text>
          </g>
        </g>
        <g id="Group-13" mask="url(#mask-2)"></g>
      </g>
    </g>
  </g>
</svg>
