<?xml version="1.0" encoding="UTF-8"?>
<svg width="327px" height="84px" viewBox="0 0 327 84" version="1.1" xmlns="http://www.w3.org/2000/svg" xmlns:xlink="http://www.w3.org/1999/xlink">
    <!-- Generator: Sketch 50.2 (55047) - http://www.bohemiancoding.com/sketch -->
    <title>Mental Wellness</title>
    <desc>Created with Sketch.</desc>
    <defs>
        <rect id="path-1" x="0" y="0" width="327" height="84"></rect>
        <path d="M1.62207031,5.21972656 L4.68359375,5.21972656 L9.21679688,18.5615234 L13.7177734,5.21972656 L16.7470703,5.21972656 L16.7470703,21 L14.7167969,21 L14.7167969,11.6865234 C14.7167969,11.3642562 14.7239583,10.8307329 14.7382812,10.0859375 C14.7526042,9.34114211 14.7597656,8.54264749 14.7597656,7.69042969 L10.2587891,21 L8.14257812,21 L3.609375,7.69042969 L3.609375,8.17382812 C3.609375,8.56054881 3.61832673,9.14957287 3.63623047,9.94091797 C3.6541342,10.7322631 3.66308594,11.3141257 3.66308594,11.6865234 L3.66308594,21 L1.62207031,21 L1.62207031,5.21972656 Z M24.5351562,9.23730469 C25.3515666,9.23730469 26.1428998,9.42887178 26.9091797,9.81201172 C27.6754596,10.1951517 28.2591126,10.6910777 28.6601562,11.2998047 C29.0468769,11.8798857 29.3046869,12.5566368 29.4335938,13.3300781 C29.5481777,13.8600287 29.6054688,14.7050723 29.6054688,15.8652344 L21.1728516,15.8652344 C21.208659,17.0325579 21.4843724,17.9689092 22,18.6743164 C22.5156276,19.3797236 23.3141222,19.7324219 24.3955078,19.7324219 C25.4052785,19.7324219 26.2109345,19.3994174 26.8125,18.7333984 C27.1562517,18.3466778 27.3997389,17.8990911 27.5429688,17.390625 L29.4443359,17.390625 C29.3942055,17.8131532 29.2277032,18.2840143 28.9448242,18.8032227 C28.6619452,19.322431 28.3450538,19.7467431 27.9941406,20.0761719 C27.4068981,20.6490914 26.6800174,21.0358063 25.8134766,21.2363281 C25.3479794,21.350912 24.8216175,21.4082031 24.234375,21.4082031 C22.8020762,21.4082031 21.5882211,20.8872122 20.5927734,19.8452148 C19.5973258,18.8032174 19.0996094,17.3440849 19.0996094,15.4677734 C19.0996094,13.6201079 19.6009064,12.1197974 20.6035156,10.9667969 C21.6061248,9.81379632 22.9166586,9.23730469 24.5351562,9.23730469 Z M27.6181641,14.3291016 C27.5393876,13.4912067 27.3567723,12.8216171 27.0703125,12.3203125 C26.5403619,11.3893183 25.6559307,10.9238281 24.4169922,10.9238281 C23.5289669,10.9238281 22.7841827,11.2443002 22.1826172,11.8852539 C21.5810517,12.5262076 21.26237,13.3408154 21.2265625,14.3291016 L27.6181641,14.3291016 Z M31.9794922,9.49511719 L33.8164062,9.49511719 L33.8164062,11.1279297 C34.3606798,10.4547492 34.9371714,9.97135563 35.5458984,9.67773438 C36.1546254,9.38411312 36.8313765,9.23730469 37.5761719,9.23730469 C39.2089925,9.23730469 40.3118461,9.80663493 40.8847656,10.9453125 C41.1998714,11.5683625 41.3574219,12.4599551 41.3574219,13.6201172 L41.3574219,21 L39.3916016,21 L39.3916016,13.7490234 C39.3916016,13.047197 39.2877615,12.4814475 39.0800781,12.0517578 C38.7363264,11.3356084 38.1132858,10.9775391 37.2109375,10.9775391 C36.7526019,10.9775391 36.3766291,11.0240881 36.0830078,11.1171875 C35.5530572,11.2747404 35.0875671,11.5898414 34.6865234,12.0625 C34.3642562,12.4420592 34.1547856,12.8341451 34.0581055,13.2387695 C33.9614253,13.643394 33.9130859,14.2216759 33.9130859,14.9736328 L33.9130859,21 L31.9794922,21 L31.9794922,9.49511719 Z M44.6015625,6.28320312 L46.5566406,6.28320312 L46.5566406,9.49511719 L48.3935547,9.49511719 L48.3935547,11.0742188 L46.5566406,11.0742188 L46.5566406,18.5830078 C46.5566406,18.9840515 46.692707,19.2526035 46.9648438,19.3886719 C47.1152351,19.4674483 47.3658837,19.5068359 47.7167969,19.5068359 C47.8098963,19.5068359 47.9101557,19.5050456 48.0175781,19.5014648 C48.1250005,19.4978841 48.2503248,19.4889324 48.3935547,19.4746094 L48.3935547,21 C48.1715484,21.0644534 47.9405936,21.1110025 47.7006836,21.1396484 C47.4607735,21.1682944 47.2011733,21.1826172 46.921875,21.1826172 C46.0195267,21.1826172 45.4072282,20.9516625 45.0849609,20.4897461 C44.7626937,20.0278297 44.6015625,19.4280636 44.6015625,18.6904297 L44.6015625,11.0742188 L43.0439453,11.0742188 L43.0439453,9.49511719 L44.6015625,9.49511719 L44.6015625,6.28320312 Z M51.8095703,17.9384766 C51.8095703,18.4970731 52.0136698,18.9374984 52.421875,19.2597656 C52.8300802,19.5820329 53.3134738,19.7431641 53.8720703,19.7431641 C54.5524123,19.7431641 55.2112598,19.5856136 55.8486328,19.2705078 C56.9228569,18.7477187 57.4599609,17.891933 57.4599609,16.703125 L57.4599609,15.1455078 C57.2236316,15.2958992 56.9192727,15.4212235 56.546875,15.5214844 C56.1744773,15.6217453 55.8092466,15.6933592 55.4511719,15.7363281 L54.2802734,15.8867188 C53.578447,15.9798182 53.0520851,16.1266266 52.7011719,16.3271484 C52.1067679,16.6637387 51.8095703,17.2008427 51.8095703,17.9384766 Z M56.4931641,14.0283203 C56.9371767,13.9710284 57.2343742,13.7848323 57.3847656,13.4697266 C57.4707036,13.2978507 57.5136719,13.0507829 57.5136719,12.7285156 C57.5136719,12.0696582 57.2791365,11.5916356 56.8100586,11.2944336 C56.3409807,10.9972316 55.6696007,10.8486328 54.7958984,10.8486328 C53.7861278,10.8486328 53.0699891,11.1207655 52.6474609,11.6650391 C52.4111316,11.9658218 52.2571618,12.4134085 52.1855469,13.0078125 L50.3808594,13.0078125 C50.4166668,11.5898367 50.8767859,10.6033556 51.7612305,10.0483398 C52.645675,9.49332405 53.6715436,9.21582031 54.8388672,9.21582031 C56.1923896,9.21582031 57.2916624,9.47363023 58.1367188,9.98925781 C58.9746136,10.5048854 59.3935547,11.3069607 59.3935547,12.3955078 L59.3935547,19.0234375 C59.3935547,19.2239593 59.4347327,19.3850905 59.5170898,19.5068359 C59.599447,19.6285813 59.7731107,19.6894531 60.0380859,19.6894531 C60.1240239,19.6894531 60.2207026,19.6840821 60.328125,19.6733398 C60.4355474,19.6625976 60.5501296,19.6464845 60.671875,19.625 L60.671875,21.0537109 C60.3710922,21.1396489 60.1419279,21.1933593 59.984375,21.2148438 C59.8268221,21.2363282 59.6119805,21.2470703 59.3398438,21.2470703 C58.6738248,21.2470703 58.1904312,21.0107446 57.8896484,20.5380859 C57.7320956,20.2874336 57.6210941,19.932945 57.5566406,19.4746094 C57.1627584,19.990237 56.5970089,20.4378236 55.859375,20.8173828 C55.1217411,21.196942 54.3089237,21.3867188 53.4208984,21.3867188 C52.3538358,21.3867188 51.481937,21.062666 50.8051758,20.4145508 C50.1284146,19.7664356 49.7900391,18.9554085 49.7900391,17.9814453 C49.7900391,16.9143827 50.1230435,16.0872425 50.7890625,15.5 C51.4550815,14.9127575 52.3287706,14.5511075 53.4101562,14.4150391 L56.4931641,14.0283203 Z M62.6162109,5.21972656 L64.5498047,5.21972656 L64.5498047,21 L62.6162109,21 L62.6162109,5.21972656 Z M74.8623047,5.21972656 L77.8378906,18.0566406 L81.4042969,5.21972656 L83.7246094,5.21972656 L87.2910156,18.0566406 L90.2666016,5.21972656 L92.6083984,5.21972656 L88.4619141,21 L86.2167969,21 L82.5751953,7.91601562 L78.9121094,21 L76.6669922,21 L72.5419922,5.21972656 L74.8623047,5.21972656 Z M98.7314453,9.23730469 C99.5478556,9.23730469 100.339189,9.42887178 101.105469,9.81201172 C101.871749,10.1951517 102.455402,10.6910777 102.856445,11.2998047 C103.243166,11.8798857 103.500976,12.5566368 103.629883,13.3300781 C103.744467,13.8600287 103.801758,14.7050723 103.801758,15.8652344 L95.3691406,15.8652344 C95.4049481,17.0325579 95.6806615,17.9689092 96.1962891,18.6743164 C96.7119166,19.3797236 97.5104113,19.7324219 98.5917969,19.7324219 C99.6015675,19.7324219 100.407224,19.3994174 101.008789,18.7333984 C101.352541,18.3466778 101.596028,17.8990911 101.739258,17.390625 L103.640625,17.390625 C103.590495,17.8131532 103.423992,18.2840143 103.141113,18.8032227 C102.858234,19.322431 102.541343,19.7467431 102.19043,20.0761719 C101.603187,20.6490914 100.876306,21.0358063 100.009766,21.2363281 C99.5442685,21.350912 99.0179066,21.4082031 98.4306641,21.4082031 C96.9983652,21.4082031 95.7845102,20.8872122 94.7890625,19.8452148 C93.7936148,18.8032174 93.2958984,17.3440849 93.2958984,15.4677734 C93.2958984,13.6201079 93.7971955,12.1197974 94.7998047,10.9667969 C95.8024139,9.81379632 97.1129476,9.23730469 98.7314453,9.23730469 Z M101.814453,14.3291016 C101.735677,13.4912067 101.553061,12.8216171 101.266602,12.3203125 C100.736651,11.3893183 99.8522197,10.9238281 98.6132812,10.9238281 C97.725256,10.9238281 96.9804718,11.2443002 96.3789062,11.8852539 C95.7773407,12.5262076 95.458659,13.3408154 95.4228516,14.3291016 L101.814453,14.3291016 Z M106.229492,5.21972656 L108.163086,5.21972656 L108.163086,21 L106.229492,21 L106.229492,5.21972656 Z M111.117188,5.21972656 L113.050781,5.21972656 L113.050781,21 L111.117188,21 L111.117188,5.21972656 Z M115.951172,9.49511719 L117.788086,9.49511719 L117.788086,11.1279297 C118.332359,10.4547492 118.908851,9.97135563 119.517578,9.67773438 C120.126305,9.38411312 120.803056,9.23730469 121.547852,9.23730469 C123.180672,9.23730469 124.283526,9.80663493 124.856445,10.9453125 C125.171551,11.5683625 125.329102,12.4599551 125.329102,13.6201172 L125.329102,21 L123.363281,21 L123.363281,13.7490234 C123.363281,13.047197 123.259441,12.4814475 123.051758,12.0517578 C122.708006,11.3356084 122.084965,10.9775391 121.182617,10.9775391 C120.724282,10.9775391 120.348309,11.0240881 120.054688,11.1171875 C119.524737,11.2747404 119.059247,11.5898414 118.658203,12.0625 C118.335936,12.4420592 118.126465,12.8341451 118.029785,13.2387695 C117.933105,13.643394 117.884766,14.2216759 117.884766,14.9736328 L117.884766,21 L115.951172,21 L115.951172,9.49511719 Z M132.977539,9.23730469 C133.793949,9.23730469 134.585283,9.42887178 135.351562,9.81201172 C136.117842,10.1951517 136.701495,10.6910777 137.102539,11.2998047 C137.48926,11.8798857 137.74707,12.5566368 137.875977,13.3300781 C137.99056,13.8600287 138.047852,14.7050723 138.047852,15.8652344 L129.615234,15.8652344 C129.651042,17.0325579 129.926755,17.9689092 130.442383,18.6743164 C130.95801,19.3797236 131.756505,19.7324219 132.837891,19.7324219 C133.847661,19.7324219 134.653317,19.3994174 135.254883,18.7333984 C135.598635,18.3466778 135.842122,17.8990911 135.985352,17.390625 L137.886719,17.390625 C137.836588,17.8131532 137.670086,18.2840143 137.387207,18.8032227 C137.104328,19.322431 136.787437,19.7467431 136.436523,20.0761719 C135.849281,20.6490914 135.1224,21.0358063 134.255859,21.2363281 C133.790362,21.350912 133.264,21.4082031 132.676758,21.4082031 C131.244459,21.4082031 130.030604,20.8872122 129.035156,19.8452148 C128.039709,18.8032174 127.541992,17.3440849 127.541992,15.4677734 C127.541992,13.6201079 128.043289,12.1197974 129.045898,10.9667969 C130.048508,9.81379632 131.359041,9.23730469 132.977539,9.23730469 Z M136.060547,14.3291016 C135.98177,13.4912067 135.799155,12.8216171 135.512695,12.3203125 C134.982745,11.3893183 134.098313,10.9238281 132.859375,10.9238281 C131.97135,10.9238281 131.226566,11.2443002 130.625,11.8852539 C130.023434,12.5262076 129.704753,13.3408154 129.668945,14.3291016 L136.060547,14.3291016 Z M141.571289,17.390625 C141.628581,18.0351595 141.789712,18.5292952 142.054688,18.8730469 C142.541669,19.4960969 143.386713,19.8076172 144.589844,19.8076172 C145.305993,19.8076172 145.936195,19.651857 146.480469,19.340332 C147.024742,19.028807 147.296875,18.5472038 147.296875,17.8955078 C147.296875,17.4013647 147.078453,17.0253919 146.641602,16.7675781 C146.362303,16.6100253 145.810877,16.4274099 144.987305,16.2197266 L143.451172,15.8330078 C142.470047,15.589517 141.746747,15.3173843 141.28125,15.0166016 C140.450517,14.4938125 140.035156,13.7705124 140.035156,12.8466797 C140.035156,11.7581326 140.427242,10.877282 141.211426,10.2041016 C141.995609,9.53092111 143.050124,9.19433594 144.375,9.19433594 C146.108082,9.19433594 147.357744,9.70279439 148.124023,10.7197266 C148.603844,11.364261 148.836589,12.0589155 148.822266,12.8037109 L146.996094,12.8037109 C146.960286,12.3668598 146.806316,11.9694028 146.53418,11.6113281 C146.090167,11.102862 145.320318,10.8486328 144.224609,10.8486328 C143.494137,10.8486328 142.94092,10.9882799 142.564941,11.2675781 C142.188963,11.5468764 142.000977,11.9156878 142.000977,12.3740234 C142.000977,12.875328 142.248044,13.2763657 142.742188,13.5771484 C143.028647,13.7561858 143.451169,13.9137363 144.009766,14.0498047 L145.288086,14.3613281 C146.677416,14.6979183 147.608396,15.0237614 148.081055,15.3388672 C148.833012,15.8330103 149.208984,16.6100207 149.208984,17.6699219 C149.208984,18.6940155 148.820479,19.5784468 148.043457,20.3232422 C147.266435,21.0680376 146.083016,21.4404297 144.493164,21.4404297 C142.781567,21.4404297 141.569502,21.0519245 140.856934,20.2749023 C140.144365,19.4978802 139.763021,18.5364641 139.712891,17.390625 L141.571289,17.390625 Z M152.571289,17.390625 C152.628581,18.0351595 152.789712,18.5292952 153.054688,18.8730469 C153.541669,19.4960969 154.386713,19.8076172 155.589844,19.8076172 C156.305993,19.8076172 156.936195,19.651857 157.480469,19.340332 C158.024742,19.028807 158.296875,18.5472038 158.296875,17.8955078 C158.296875,17.4013647 158.078453,17.0253919 157.641602,16.7675781 C157.362303,16.6100253 156.810877,16.4274099 155.987305,16.2197266 L154.451172,15.8330078 C153.470047,15.589517 152.746747,15.3173843 152.28125,15.0166016 C151.450517,14.4938125 151.035156,13.7705124 151.035156,12.8466797 C151.035156,11.7581326 151.427242,10.877282 152.211426,10.2041016 C152.995609,9.53092111 154.050124,9.19433594 155.375,9.19433594 C157.108082,9.19433594 158.357744,9.70279439 159.124023,10.7197266 C159.603844,11.364261 159.836589,12.0589155 159.822266,12.8037109 L157.996094,12.8037109 C157.960286,12.3668598 157.806316,11.9694028 157.53418,11.6113281 C157.090167,11.102862 156.320318,10.8486328 155.224609,10.8486328 C154.494137,10.8486328 153.94092,10.9882799 153.564941,11.2675781 C153.188963,11.5468764 153.000977,11.9156878 153.000977,12.3740234 C153.000977,12.875328 153.248044,13.2763657 153.742188,13.5771484 C154.028647,13.7561858 154.451169,13.9137363 155.009766,14.0498047 L156.288086,14.3613281 C157.677416,14.6979183 158.608396,15.0237614 159.081055,15.3388672 C159.833012,15.8330103 160.208984,16.6100207 160.208984,17.6699219 C160.208984,18.6940155 159.820479,19.5784468 159.043457,20.3232422 C158.266435,21.0680376 157.083016,21.4404297 155.493164,21.4404297 C153.781567,21.4404297 152.569502,21.0519245 151.856934,20.2749023 C151.144365,19.4978802 150.763021,18.5364641 150.712891,17.390625 L152.571289,17.390625 Z" id="path-3"></path>
        <rect id="path-4" x="0" y="0" width="327" height="84"></rect>
    </defs>
    <g id="Page-1" stroke="none" stroke-width="1" fill="none" fill-rule="evenodd">
        <g id="Mental-Wellness">
            <g id="Mask" fill="#FFFFFF" fill-rule="nonzero">
                <rect id="path-1" x="0" y="0" width="327" height="84"></rect>
            </g>
            <g id="Group-10-Clipped">
                <mask id="mask-2" fill="white">
                    <use xlink:href="#path-1"></use>
                </mask>
                <g id="path-1"></g>
                <g id="Group-10" mask="url(#mask-2)">
                    <g transform="translate(1.000000, -14.000000)" id="Group">
                        <g>
                            <g id="Group-6">
                                <polygon id="Rectangle-8" fill="#1EA09F" fill-rule="nonzero" points="143.257937 14 326 14 326 98 242.378959 98"></polygon>
                                <g id="Rectangle" transform="translate(199.000000, 0.000000)" fill="#FFFFFF" fill-rule="nonzero">
                                    <g id="Mask">
                                        <path d="M81.5787823,163.137434 C80.9210068,174.492359 81.1256481,185.894011 79.3423455,197.171055 C78.8949539,201.733046 75.6047495,205.392895 71.3467186,206.064967 C63.198698,207.934556 54.7034076,206.985105 47.0967276,203.354738 C43.8679754,201.892086 41.7018208,198.598916 41.5129442,194.865803 L39.0572489,174.850607 C38.7356698,172.09365 38.2533011,169.414573 34.6720788,170.427015 C28.372051,172.187106 29.5560469,168.028307 30.433081,164.336788 C31.748632,158.822875 34.5259064,154.009882 38.5748802,148.059839 C29.5121952,151.62675 21.8819991,154.290251 13.7255826,153.573753 C6.02230036,152.950712 4.95524229,150.925829 7.30861694,143.137815 C13.6963482,122.702066 31.8801871,111.861151 52.432018,116.315895 C54.1422343,116.68972 56.1740298,118.901516 57.5334326,116.175711 C58.1027602,114.736542 58.1027602,113.113408 57.5334326,111.674239 C56.3494366,108.870554 54.0837654,110.490461 52.4758697,111.113502 C45.1672527,113.886035 37.5662911,113.294146 30.1115018,114.228707 C20.2532281,115.517917 10.5816622,118.097022 1.31555105,121.907689 C9.98357074,107.889264 22.7882676,101.471941 38.31177,98.6994076 C31.1493254,94.945585 23.1098468,94.2135117 18.7246766,86.7214423 C21.3996304,86.5656821 23.1098468,88.6372937 25.2731974,89.8366479 C34.5112892,94.9144329 44.1001946,97.4065973 54.6976892,95.0701932 C42.5653851,76.2076236 21.3850132,74.8213572 4.51672527,63.1237603 C7.0308895,73.5129708 14.3395064,78.9334285 18.5054181,86.5968341 C7.25014801,80.366423 2.93806401,69.2607153 0,56.6441328 C10.5167052,64.4002847 22.2337185,70.1210809 34.6136098,73.5441229 C25.8432695,64.1985063 22.9198227,53.5445033 18.8269972,43.4823894 C17.3652739,39.915479 17.3652739,38.4824845 21.9112336,38.9964934 C39.9050485,41.0836811 52.1104388,50.8498505 58.8489836,70.1485488 C59.2144145,61.4103973 59.375204,53.8560238 59.9014245,46.3328025 C60.1645347,42.4699476 57.5772843,40.8656167 55.5162543,38.7317009 C42.8284953,25.258437 44.7872046,10.3989065 60.3545587,1.27135427 C64.0527189,-0.909289612 65.9091076,-0.44200878 67.4292999,3.90370295 C71.4782737,15.4922676 71.8144701,26.7225836 65.2805665,37.4233146 C61.3192962,43.8873661 63.2195366,50.8186984 62.8833402,60.0085548 C65.9821938,55.7718753 67.9116686,53.3264389 69.6657367,50.6629382 C79.1669387,36.6445132 92.5270905,33.2333631 107.772865,34.8844221 C113.093539,35.4607351 112.158036,38.202116 110.082388,41.6599941 C100.844297,56.9245013 88.9604854,67.7654166 71.2005463,70.1329728 C61.1292721,71.4725112 60.8223102,72.6562893 62.2401819,84.836743 C77.6175119,64.5879069 96.2837196,66.5193344 115.900047,74.9303894 C117.361771,75.5845825 119.598208,75.7403428 119.568973,78.0455949 C119.568973,79.7122299 117.624881,80.1016306 116.426268,80.942736 C101.048938,91.8459555 84.7361048,99.0420803 65.748318,96.7835562 C61.1731238,96.2383953 61.6262581,99.8987618 61.5093202,103.013967 C61.3485306,107.359679 63.5995846,107.686776 66.7130555,106.61203 C84.2537361,100.786595 101.794417,103.247608 119.437418,106.471845 C120.899141,106.736638 122.638592,106.580878 122.960171,108.496729 C123.281751,110.41258 121.586151,111.066774 120.387538,111.829999 C103.826212,122.328242 86.6801969,126.378009 68.2770995,117.250457 C66.3914763,116.315895 64.2427429,113.808155 62.4302059,115.55267 C60.6176689,117.297185 61.5385547,120.443542 61.684727,122.998011 C61.8601338,126.01976 64.0234844,126.673953 66.3330074,126.860866 C81.9442132,128.044644 96.6052988,134.010262 114.029042,137.296804 C106.398845,142.76399 99.9087936,146.642421 92.307832,148.200024 C88.1273031,149.041129 83.2743815,148.667305 85.4815838,156.206102 C85.8609175,157.653469 85.6677822,159.203211 84.947094,160.494915 C84.2264059,161.786619 83.0409737,162.707711 81.6664857,163.043978 C81.0233274,161.174855 83.8152191,156.657807 79.0500009,157.981769 C70.4696846,160.364901 61.7870476,160.396053 53.0751762,160.520662 C51.0726152,160.520662 48.5292165,161.003519 48.5145993,163.339923 C48.5145993,166.782225 51.6280701,165.738631 53.5136933,165.894391 C62.9710436,166.595312 72.369925,166.33052 81.5787823,163.137434 Z M43.3985674,118.169442 C28.7813335,118.169442 14.0910135,129.415334 10.5097912,142.483622 C9.04806778,147.935231 9.69122607,150.847948 15.8158471,150.536428 C29.5121952,149.835507 41.5275615,145.505371 50.0786433,133.402797 C52.4758697,129.991647 57.0949156,126.487041 55.2969958,122.234786 C53.1628796,117.110272 47.3013689,118.636723 43.3985674,118.169442 Z M114.759903,78.107899 C108.475951,74.4987107 101.513685,72.4337535 94.3834792,72.0644002 C82.9528023,71.5348153 72.7938248,75.5222784 65.5875284,85.7090005 C64.3012119,87.5469718 62.5471438,89.5874314 63.5118812,92.0328678 C64.4766187,94.4783041 67.2246586,93.9331432 69.3587748,94.1356315 C86.3586178,95.8334185 100.581186,88.3569252 114.759903,78.107899 Z M57.4749636,80.0549025 C56.9048915,63.3885528 41.3960064,44.93096 26.2964038,42.6724359 C23.9137946,42.3141873 22.6567125,42.2207311 23.0367606,45.5851531 C24.5715702,60.102011 40.4751206,79.5564696 53.8060379,83.3102923 C56.8902743,84.1981258 57.7965428,83.185684 57.4749636,80.0549025 Z M64.1258051,68.0302091 C82.3534957,67.5629282 95.8744371,58.4976801 106.00418,42.7658921 C108.445258,38.9653413 107.3782,37.9996276 103.694657,37.4544667 C87.2795035,35.0246063 67.9555203,49.8374087 64.1258051,68.0302091 Z M64.432767,111.300414 C79.3569628,122.45285 101.984441,121.565016 115.943899,109.742811 C99.0135905,104.785402 81.0815227,105.311368 64.432767,111.253686 L64.432767,111.300414 Z M67.9701376,19.1993622 C68.2917167,14.8069224 66.3037729,10.8350353 65.2805665,6.61393178 C64.622791,3.93485501 63.3803261,3.5921824 61.0123342,4.46443995 C56.1535819,6.36641564 52.3868942,10.5457689 50.7997796,15.7958474 C49.212665,21.0459258 49.9818112,26.7822577 52.8851522,31.3486638 C54.8146271,34.276957 57.0510639,38.18654 60.3837932,38.0619317 C64.1404223,37.9061715 64.7689634,33.0776029 66.0260455,29.8689412 C67.4648735,26.5125026 68.1313589,22.8386733 67.9701376,19.1526341 L67.9701376,19.1993622 Z M77.6175119,169.788398 C66.0260455,177.576412 61.1000376,177.576412 50.6487154,170.146647 C48.1053167,168.324252 45.1526355,165.380382 42.2584232,168.277523 C39.5980866,170.9566 41.6591166,174.663695 42.6823229,177.732172 C43.7055293,180.80065 46.497421,182.404981 49.4062505,183.028022 C53.8701352,184.214753 58.4082994,185.058031 62.9856608,185.551338 C77.807536,186.579356 80.0293555,181.454843 77.6175119,169.74167 L77.6175119,169.788398 Z M104.454753,139.306112 C97.4384811,137.218924 90.7730224,134.991552 83.9906259,133.324917 C79.2333794,132.274375 74.4201466,131.535723 69.5780333,131.113121 C67.7947308,130.926209 65.2805665,129.773583 64.3304463,132.156715 C63.3803261,134.539847 65.7921697,135.770354 67.0346346,137.203348 C76.5212194,147.561407 92.5417077,148.589424 104.454753,139.259384 L104.454753,139.306112 Z M43.3839502,183.837975 C42.0976336,186.096499 42.872347,188.510783 44.2025153,188.822304 C52.7097454,190.707003 57.6942221,198.308105 64.6666427,202.513632 C68.0286065,204.554092 71.9752597,204.491788 74.7379169,201.205246 C77.8221532,197.482575 76.9158847,192.389214 77.4274879,187.841014 C77.559043,186.626084 76.2142575,186.376868 75.2202856,186.703964 C64.2719774,190.317603 53.8060379,186.906453 43.3839502,183.837975 Z M56.7294847,106.316085 C42.1122508,98.9330481 20.5079791,103.43452 13.0824243,114.836172 C27.0711172,109.010738 41.6152649,111.845575 56.7294847,106.316085 Z M32.8449245,167.856971 C41.4637766,165.181555 48.8476024,159.199981 53.5721622,151.066013 C54.5807513,149.414954 56.4225228,147.576983 54.9169477,145.567675 C53.4113726,143.558367 51.2334048,144.430625 49.4208678,144.991362 C39.2911247,148.200024 35.4906439,156.813567 32.8449245,167.856971 Z" id="path-3"></path>
                                    </g>
                                </g>
                                <rect id="Rectangle-7" stroke="#1EA09F" stroke-width="3" x="0.5" y="15.5" width="324" height="81"></rect>
                            </g>
                            <g id="Mental-Wellness" transform="translate(10.000000, 46.000000)">
                                <g>
                                    <use fill="#000000" xlink:href="#path-3"></use>
                                    <use fill="#1EA09F" xlink:href="#path-3"></use>
                                </g>
                            </g>
                        </g>
                    </g>
                </g>
            </g>
            <g id="Group-13-Clipped">
                <mask id="mask-5" fill="white">
                    <use xlink:href="#path-4"></use>
                </mask>
                <g id="path-1"></g>
            </g>
        </g>
    </g>
</svg>