<svg xmlns="http://www.w3.org/2000/svg" width="161" height="161" viewBox="0 0 161 161">
    <defs>
        <linearGradient id="a" x1="50%" x2="50%" y1="100%" y2="0%">
            <stop offset="0%" stop-color="#0AAFED"/>
            <stop offset="100%" stop-color="#0477D6"/>
        </linearGradient>
        <linearGradient id="b" x1="50%" x2="50%" y1="0%" y2="100%">
            <stop offset="0%" stop-color="#FF8300"/>
            <stop offset="100%" stop-color="#FF6000"/>
        </linearGradient>
    </defs>
    <g fill="none" fill-rule="evenodd">
        <g transform="translate(-235)">
            <!-- <path fill="url(#a)" d="M0 67h375v187H0z"/> -->
            <circle cx="315.5" cy="80.5" r="80.5" fill="url(#b)"/>
        </g>
        <!-- <g fill="#FFF">
            <g transform="translate(111 72)">
                <path fill-opacity=".5" d="M23 3.5a2 2 0 0 1 0 3.874V3.5z"/>
                <rect width="18" height="6.5" x="2" y="2" rx="1"/>
            </g>
            <path d="M70.5 70l4 4-2.5 3 2.5 2.5-4 4V78L68 80.5l-.5-.5 3-3v-.5l-3.5-3 .5-.5 3 2.501V70zm1 2.5v3.001l1.533-1.5-1.532-1.501zm0 5.5v3l1.464-1.5L71.5 78z"/>
        </g> -->
        <!-- <path fill="#FCFCFD" d="M-216 72.497c0-.274.23-.497.506-.497h1.488c.28 0 .506.216.506.497v8.506c0 .274-.23.497-.506.497h-1.488a.498.498 0 0 1-.506-.497v-8.506zm-4 2.506c0-.278.23-.503.506-.503h1.488a.51.51 0 0 1 .506.503v5.994c0 .278-.23.503-.506.503h-1.488a.51.51 0 0 1-.506-.503v-5.994zm-4 1.995c0-.275.23-.498.506-.498h1.488c.28 0 .506.215.506.498v4.004c0 .275-.23.498-.506.498h-1.488a.497.497 0 0 1-.506-.498v-4.004zm-4 1.997c0-.273.23-.495.506-.495h1.488c.28 0 .506.216.506.495v2.01c0 .273-.23.495-.506.495h-1.488a.497.497 0 0 1-.506-.495v-2.01z"/> -->
        <!-- <path fill="#FFF" d="M-196.856 79.439l-2.121 2.061-2.163-2.095a2.857 2.857 0 0 1 2.128-.936c.864 0 1.638.376 2.156.97zm2.18-2.118l-1.09 1.058a4.417 4.417 0 0 0-3.246-1.402c-1.274 0-2.42.528-3.219 1.372l-1.09-1.056a5.979 5.979 0 0 1 4.309-1.809c1.713 0 3.257.708 4.335 1.837zm2.176-2.114l-1.088 1.057a7.539 7.539 0 0 0-5.424-2.272 7.54 7.54 0 0 0-5.398 2.245l-1.09-1.055a9.1 9.1 0 0 1 6.488-2.682 9.1 9.1 0 0 1 6.512 2.707z"/> -->
    </g>
</svg>
