<?xml version="1.0" encoding="UTF-8"?>
<svg width="327px" height="84px" viewBox="0 0 327 84" version="1.1" xmlns="http://www.w3.org/2000/svg" xmlns:xlink="http://www.w3.org/1999/xlink">
    <!-- Generator: Sketch 50.2 (55047) - http://www.bohemiancoding.com/sketch -->
    <title>Physical Health</title>
    <desc>Created with Sketch.</desc>
    <defs>
        <rect id="path-1" x="0" y="0" width="327" height="84"></rect>
        <path d="M1.87988281,5.21972656 L8.98046875,5.21972656 C10.3841216,5.21972656 11.5156207,5.61539318 12.375,6.40673828 C13.2343793,7.19808338 13.6640625,8.30988867 13.6640625,9.7421875 C13.6640625,10.9739645 13.2809283,12.0463822 12.5146484,12.9594727 C11.7483686,13.8725632 10.5703204,14.3291016 8.98046875,14.3291016 L4.01757812,14.3291016 L4.01757812,21 L1.87988281,21 L1.87988281,5.21972656 Z M11.5048828,9.75292969 C11.5048828,8.59276764 11.0751996,7.8050151 10.2158203,7.38964844 C9.7431617,7.16764212 9.0950562,7.05664062 8.27148438,7.05664062 L4.01757812,7.05664062 L4.01757812,12.5244141 L8.27148438,12.5244141 C9.23112459,12.5244141 10.0099254,12.3203145 10.6079102,11.9121094 C11.2058949,11.5039042 11.5048828,10.7841848 11.5048828,9.75292969 Z M16.0917969,5.16601562 L18.0253906,5.16601562 L18.0253906,11.0527344 C18.4837263,10.4726533 18.895506,10.0644543 19.2607422,9.828125 C19.8837922,9.41991983 20.6608026,9.21582031 21.5917969,9.21582031 C23.260425,9.21582031 24.3919241,9.79947333 24.9863281,10.9667969 C25.3085954,11.6041699 25.4697266,12.4886011 25.4697266,13.6201172 L25.4697266,21 L23.4824219,21 L23.4824219,13.7490234 C23.4824219,12.9039671 23.3750011,12.2845072 23.1601562,11.890625 C22.809243,11.2604135 22.1503955,10.9453125 21.1835938,10.9453125 C20.3815064,10.9453125 19.6546257,11.2210259 19.0029297,11.7724609 C18.3512337,12.323896 18.0253906,13.3658778 18.0253906,14.8984375 L18.0253906,21 L16.0917969,21 L16.0917969,5.16601562 Z M35.5136719,9.49511719 L37.6513672,9.49511719 C37.3792304,10.2327511 36.7740932,11.915677 35.8359375,14.5439453 C35.1341111,16.5205177 34.5468774,18.1318297 34.0742188,19.3779297 C32.9570257,22.3141423 32.1692731,24.104489 31.7109375,24.7490234 C31.2526019,25.3935579 30.4648493,25.7158203 29.3476562,25.7158203 C29.0755195,25.7158203 28.8660489,25.7050782 28.7192383,25.6835938 C28.5724277,25.6621093 28.3916026,25.6227216 28.1767578,25.5654297 L28.1767578,23.8037109 C28.513348,23.8968104 28.7568352,23.9541015 28.9072266,23.9755859 C29.0576179,23.9970704 29.1901036,24.0078125 29.3046875,24.0078125 C29.6627622,24.0078125 29.9259432,23.9487311 30.0942383,23.8305664 C30.2625334,23.7124018 30.4039708,23.5673837 30.5185547,23.3955078 C30.5543622,23.3382159 30.6832671,23.044599 30.9052734,22.5146484 C31.1272798,21.9846979 31.288411,21.5908216 31.3886719,21.3330078 L27.1347656,9.49511719 L29.3261719,9.49511719 L32.4091797,18.8623047 L35.5136719,9.49511719 Z M40.4765625,17.390625 C40.5338545,18.0351595 40.6949857,18.5292952 40.9599609,18.8730469 C41.4469425,19.4960969 42.2919862,19.8076172 43.4951172,19.8076172 C44.2112666,19.8076172 44.8414686,19.651857 45.3857422,19.340332 C45.9300157,19.028807 46.2021484,18.5472038 46.2021484,17.8955078 C46.2021484,17.4013647 45.9837261,17.0253919 45.546875,16.7675781 C45.2675767,16.6100253 44.71615,16.4274099 43.8925781,16.2197266 L42.3564453,15.8330078 C41.3753206,15.589517 40.6520206,15.3173843 40.1865234,15.0166016 C39.3557901,14.4938125 38.9404297,13.7705124 38.9404297,12.8466797 C38.9404297,11.7581326 39.3325156,10.877282 40.1166992,10.2041016 C40.9008828,9.53092111 41.955397,9.19433594 43.2802734,9.19433594 C45.013355,9.19433594 46.263017,9.70279439 47.0292969,10.7197266 C47.509117,11.364261 47.7418621,12.0589155 47.7275391,12.8037109 L45.9013672,12.8037109 C45.8655597,12.3668598 45.7115899,11.9694028 45.4394531,11.6113281 C44.9954405,11.102862 44.2255914,10.8486328 43.1298828,10.8486328 C42.3994104,10.8486328 41.8461933,10.9882799 41.4702148,11.2675781 C41.0942364,11.5468764 40.90625,11.9156878 40.90625,12.3740234 C40.90625,12.875328 41.1533178,13.2763657 41.6474609,13.5771484 C41.9339207,13.7561858 42.3564425,13.9137363 42.9150391,14.0498047 L44.1933594,14.3613281 C45.5826892,14.6979183 46.5136695,15.0237614 46.9863281,15.3388672 C47.738285,15.8330103 48.1142578,16.6100207 48.1142578,17.6699219 C48.1142578,18.6940155 47.7257526,19.5784468 46.9487305,20.3232422 C46.1717084,21.0680376 44.9882892,21.4404297 43.3984375,21.4404297 C41.6868404,21.4404297 40.4747757,21.0519245 39.762207,20.2749023 C39.0496384,19.4978802 38.6682945,18.5364641 38.6181641,17.390625 L40.4765625,17.390625 Z M50.3271484,9.54882812 L52.2929688,9.54882812 L52.2929688,21 L50.3271484,21 L50.3271484,9.54882812 Z M50.3271484,5.21972656 L52.2929688,5.21972656 L52.2929688,7.41113281 L50.3271484,7.41113281 L50.3271484,5.21972656 Z M59.6513672,9.16210938 C60.9475976,9.16210938 62.0021118,9.47721039 62.8149414,10.1074219 C63.627771,10.7376334 64.1165356,11.8225834 64.28125,13.3623047 L62.4013672,13.3623047 C62.2867833,12.6533168 62.0253927,12.0642927 61.6171875,11.5952148 C61.2089823,11.126137 60.5537154,10.8916016 59.6513672,10.8916016 C58.4195902,10.8916016 57.5387396,11.493158 57.0087891,12.6962891 C56.6650373,13.4768919 56.4931641,14.4400984 56.4931641,15.5859375 C56.4931641,16.7389381 56.7366512,17.709306 57.2236328,18.4970703 C57.7106144,19.2848347 58.4768828,19.6787109 59.5224609,19.6787109 C60.3245483,19.6787109 60.9601214,19.4334334 61.4291992,18.9428711 C61.8982771,18.4523087 62.2223298,17.7809287 62.4013672,16.9287109 L64.28125,16.9287109 C64.0664052,18.4541092 63.5293012,19.5694952 62.6699219,20.2749023 C61.8105426,20.9803095 60.7112697,21.3330078 59.3720703,21.3330078 C57.8681565,21.3330078 56.6686243,20.7833714 55.7734375,19.684082 C54.8782507,18.5847927 54.4306641,17.2115968 54.4306641,15.5644531 C54.4306641,13.5449118 54.9212191,11.9729874 55.9023438,10.8486328 C56.8834684,9.72427823 58.1331304,9.16210938 59.6513672,9.16210938 Z M67.6972656,17.9384766 C67.6972656,18.4970731 67.9013651,18.9374984 68.3095703,19.2597656 C68.7177755,19.5820329 69.2011691,19.7431641 69.7597656,19.7431641 C70.4401076,19.7431641 71.0989551,19.5856136 71.7363281,19.2705078 C72.8105522,18.7477187 73.3476562,17.891933 73.3476562,16.703125 L73.3476562,15.1455078 C73.1113269,15.2958992 72.806968,15.4212235 72.4345703,15.5214844 C72.0621726,15.6217453 71.6969419,15.6933592 71.3388672,15.7363281 L70.1679688,15.8867188 C69.4661423,15.9798182 68.9397804,16.1266266 68.5888672,16.3271484 C67.9944632,16.6637387 67.6972656,17.2008427 67.6972656,17.9384766 Z M72.3808594,14.0283203 C72.824872,13.9710284 73.1220696,13.7848323 73.2724609,13.4697266 C73.3583989,13.2978507 73.4013672,13.0507829 73.4013672,12.7285156 C73.4013672,12.0696582 73.1668318,11.5916356 72.6977539,11.2944336 C72.228676,10.9972316 71.557296,10.8486328 70.6835938,10.8486328 C69.6738231,10.8486328 68.9576844,11.1207655 68.5351562,11.6650391 C68.2988269,11.9658218 68.1448571,12.4134085 68.0732422,13.0078125 L66.2685547,13.0078125 C66.3043622,11.5898367 66.7644813,10.6033556 67.6489258,10.0483398 C68.5333703,9.49332405 69.559239,9.21582031 70.7265625,9.21582031 C72.0800849,9.21582031 73.1793578,9.47363023 74.0244141,9.98925781 C74.8623089,10.5048854 75.28125,11.3069607 75.28125,12.3955078 L75.28125,19.0234375 C75.28125,19.2239593 75.322428,19.3850905 75.4047852,19.5068359 C75.4871423,19.6285813 75.660806,19.6894531 75.9257812,19.6894531 C76.0117192,19.6894531 76.1083979,19.6840821 76.2158203,19.6733398 C76.3232427,19.6625976 76.4378249,19.6464845 76.5595703,19.625 L76.5595703,21.0537109 C76.2587876,21.1396489 76.0296232,21.1933593 75.8720703,21.2148438 C75.7145174,21.2363282 75.4996758,21.2470703 75.2275391,21.2470703 C74.5615201,21.2470703 74.0781265,21.0107446 73.7773438,20.5380859 C73.6197909,20.2874336 73.5087894,19.932945 73.4443359,19.4746094 C73.0504538,19.990237 72.4847042,20.4378236 71.7470703,20.8173828 C71.0094364,21.196942 70.196619,21.3867188 69.3085938,21.3867188 C68.2415311,21.3867188 67.3696323,21.062666 66.6928711,20.4145508 C66.0161099,19.7664356 65.6777344,18.9554085 65.6777344,17.9814453 C65.6777344,16.9143827 66.0107389,16.0872425 66.6767578,15.5 C67.3427768,14.9127575 68.2164659,14.5511075 69.2978516,14.4150391 L72.3808594,14.0283203 Z M78.5039062,5.21972656 L80.4375,5.21972656 L80.4375,21 L78.5039062,21 L78.5039062,5.21972656 Z M89.7617188,5.21972656 L91.9208984,5.21972656 L91.9208984,11.7402344 L100.12793,11.7402344 L100.12793,5.21972656 L102.287109,5.21972656 L102.287109,21 L100.12793,21 L100.12793,13.6201172 L91.9208984,13.6201172 L91.9208984,21 L89.7617188,21 L89.7617188,5.21972656 Z M110.128906,9.23730469 C110.945317,9.23730469 111.73665,9.42887178 112.50293,9.81201172 C113.26921,10.1951517 113.852863,10.6910777 114.253906,11.2998047 C114.640627,11.8798857 114.898437,12.5566368 115.027344,13.3300781 C115.141928,13.8600287 115.199219,14.7050723 115.199219,15.8652344 L106.766602,15.8652344 C106.802409,17.0325579 107.078122,17.9689092 107.59375,18.6743164 C108.109378,19.3797236 108.907872,19.7324219 109.989258,19.7324219 C110.999028,19.7324219 111.804684,19.3994174 112.40625,18.7333984 C112.750002,18.3466778 112.993489,17.8990911 113.136719,17.390625 L115.038086,17.390625 C114.987955,17.8131532 114.821453,18.2840143 114.538574,18.8032227 C114.255695,19.322431 113.938804,19.7467431 113.587891,20.0761719 C113.000648,20.6490914 112.273767,21.0358063 111.407227,21.2363281 C110.941729,21.350912 110.415368,21.4082031 109.828125,21.4082031 C108.395826,21.4082031 107.181971,20.8872122 106.186523,19.8452148 C105.191076,18.8032174 104.693359,17.3440849 104.693359,15.4677734 C104.693359,13.6201079 105.194656,12.1197974 106.197266,10.9667969 C107.199875,9.81379632 108.510409,9.23730469 110.128906,9.23730469 Z M113.211914,14.3291016 C113.133138,13.4912067 112.950522,12.8216171 112.664062,12.3203125 C112.134112,11.3893183 111.249681,10.9238281 110.010742,10.9238281 C109.122717,10.9238281 108.377933,11.2443002 107.776367,11.8852539 C107.174802,12.5262076 106.85612,13.3408154 106.820312,14.3291016 L113.211914,14.3291016 Z M119.055664,17.9384766 C119.055664,18.4970731 119.259764,18.9374984 119.667969,19.2597656 C120.076174,19.5820329 120.559568,19.7431641 121.118164,19.7431641 C121.798506,19.7431641 122.457354,19.5856136 123.094727,19.2705078 C124.168951,18.7477187 124.706055,17.891933 124.706055,16.703125 L124.706055,15.1455078 C124.469725,15.2958992 124.165366,15.4212235 123.792969,15.5214844 C123.420571,15.6217453 123.05534,15.6933592 122.697266,15.7363281 L121.526367,15.8867188 C120.824541,15.9798182 120.298179,16.1266266 119.947266,16.3271484 C119.352862,16.6637387 119.055664,17.2008427 119.055664,17.9384766 Z M123.739258,14.0283203 C124.18327,13.9710284 124.480468,13.7848323 124.630859,13.4697266 C124.716797,13.2978507 124.759766,13.0507829 124.759766,12.7285156 C124.759766,12.0696582 124.52523,11.5916356 124.056152,11.2944336 C123.587074,10.9972316 122.915694,10.8486328 122.041992,10.8486328 C121.032222,10.8486328 120.316083,11.1207655 119.893555,11.6650391 C119.657225,11.9658218 119.503256,12.4134085 119.431641,13.0078125 L117.626953,13.0078125 C117.662761,11.5898367 118.12288,10.6033556 119.007324,10.0483398 C119.891769,9.49332405 120.917637,9.21582031 122.084961,9.21582031 C123.438483,9.21582031 124.537756,9.47363023 125.382812,9.98925781 C126.220707,10.5048854 126.639648,11.3069607 126.639648,12.3955078 L126.639648,19.0234375 C126.639648,19.2239593 126.680826,19.3850905 126.763184,19.5068359 C126.845541,19.6285813 127.019204,19.6894531 127.28418,19.6894531 C127.370118,19.6894531 127.466796,19.6840821 127.574219,19.6733398 C127.681641,19.6625976 127.796223,19.6464845 127.917969,19.625 L127.917969,21.0537109 C127.617186,21.1396489 127.388022,21.1933593 127.230469,21.2148438 C127.072916,21.2363282 126.858074,21.2470703 126.585938,21.2470703 C125.919919,21.2470703 125.436525,21.0107446 125.135742,20.5380859 C124.978189,20.2874336 124.867188,19.932945 124.802734,19.4746094 C124.408852,19.990237 123.843103,20.4378236 123.105469,20.8173828 C122.367835,21.196942 121.555017,21.3867188 120.666992,21.3867188 C119.59993,21.3867188 118.728031,21.062666 118.05127,20.4145508 C117.374508,19.7664356 117.036133,18.9554085 117.036133,17.9814453 C117.036133,16.9143827 117.369137,16.0872425 118.035156,15.5 C118.701175,14.9127575 119.574864,14.5511075 120.65625,14.4150391 L123.739258,14.0283203 Z M129.862305,5.21972656 L131.795898,5.21972656 L131.795898,21 L129.862305,21 L129.862305,5.21972656 Z M135.083008,6.28320312 L137.038086,6.28320312 L137.038086,9.49511719 L138.875,9.49511719 L138.875,11.0742188 L137.038086,11.0742188 L137.038086,18.5830078 C137.038086,18.9840515 137.174152,19.2526035 137.446289,19.3886719 C137.59668,19.4674483 137.847329,19.5068359 138.198242,19.5068359 C138.291342,19.5068359 138.391601,19.5050456 138.499023,19.5014648 C138.606446,19.4978841 138.73177,19.4889324 138.875,19.4746094 L138.875,21 C138.652994,21.0644534 138.422039,21.1110025 138.182129,21.1396484 C137.942219,21.1682944 137.682619,21.1826172 137.40332,21.1826172 C136.500972,21.1826172 135.888673,20.9516625 135.566406,20.4897461 C135.244139,20.0278297 135.083008,19.4280636 135.083008,18.6904297 L135.083008,11.0742188 L133.525391,11.0742188 L133.525391,9.49511719 L135.083008,9.49511719 L135.083008,6.28320312 Z M140.808594,5.16601562 L142.742188,5.16601562 L142.742188,11.0527344 C143.200523,10.4726533 143.612303,10.0644543 143.977539,9.828125 C144.600589,9.41991983 145.3776,9.21582031 146.308594,9.21582031 C147.977222,9.21582031 149.108721,9.79947333 149.703125,10.9667969 C150.025392,11.6041699 150.186523,12.4886011 150.186523,13.6201172 L150.186523,21 L148.199219,21 L148.199219,13.7490234 C148.199219,12.9039671 148.091798,12.2845072 147.876953,11.890625 C147.52604,11.2604135 146.867192,10.9453125 145.900391,10.9453125 C145.098303,10.9453125 144.371423,11.2210259 143.719727,11.7724609 C143.068031,12.323896 142.742188,13.3658778 142.742188,14.8984375 L142.742188,21 L140.808594,21 L140.808594,5.16601562 Z" id="path-3"></path>
    </defs>
    <g id="Page-1" stroke="none" stroke-width="1" fill="none" fill-rule="evenodd">
        <g id="Physical-Health">
            <g id="Mask" fill="#FFFFFF" fill-rule="nonzero">
                <rect id="path-1" x="0" y="0" width="327" height="84"></rect>
            </g>
            <g id="Clipped">
                <mask id="mask-2" fill="white">
                    <use xlink:href="#path-1"></use>
                </mask>
                <g id="path-1"></g>
                <g id="Group" mask="url(#mask-2)">
                    <g transform="translate(2.000000, -22.000000)">
                        <g id="Group-7">
                            <polygon id="Rectangle-8" fill="#FF9E00" fill-rule="nonzero" points="182.485757 22 325 22 325 106 197.405397 106"></polygon>
                            <g id="Asset-3" transform="translate(268.441416, 53.270139) scale(-1, 1) rotate(-160.000000) translate(-268.441416, -53.270139) translate(199.441416, 22.270139)" fill="#FFFFFF" fill-rule="nonzero">
                                <rect id="Rectangle-path" x="22.4435089" y="27.8930123" width="113.669394" height="7.64254352"></rect>
                                <rect id="Rectangle-path" x="114.376386" y="0.935146205" width="13.3763184" height="60.193433" rx="3.46"></rect>
                                <path d="M126.080664,8.45932533 L126.080664,53.6044001 L133.351504,53.6044001 C135.800025,53.6044001 137.784943,51.6031983 137.784943,49.1345907 L137.784943,12.9291347 C137.784943,10.4605272 135.800025,8.45932533 133.351504,8.45932533 L126.080664,8.45932533 Z" id="Shape"></path>
                                <rect id="Rectangle-path" x="17.4958036" y="0.100710715" width="13.3763184" height="60.193433" rx="3.46"></rect>
                                <path d="M20.0038633,7.62488984 L20.0038633,52.7699646 L12.6886891,52.7699646 C10.2646537,52.7699646 8.29958464,50.7687628 8.29958464,48.3001552 L8.29958464,12.0946992 C8.29958464,9.62609167 10.2646537,7.62488984 12.6886891,7.62488984 L20.0038633,7.62488984 Z" id="Shape"></path>
                                <path d="M9.97162445,16.8211088 L9.97162445,44.4097656 L4.25996953,44.4097656 C2.34139903,44.4097834 0.78374713,42.8865085 0.775405519,41.0021052 L0.775405519,20.2436498 C0.775405519,18.3534326 2.33549797,16.8211088 4.25996953,16.8211088 L9.97162445,16.8211088 Z" id="Shape"></path>
                            </g>
                            <rect id="Rectangle-7" stroke="#FF9E00" stroke-width="3" x="0.5" y="23.5" width="323" height="81"></rect>
                        </g>
                        <g id="Physical-Health" transform="translate(10.000000, 53.000000)">
                            <g>
                                <use fill="#000000" xlink:href="#path-3"></use>
                                <use fill="#FF9E00" xlink:href="#path-3"></use>
                            </g>
                        </g>
                    </g>
                </g>
            </g>
        </g>
    </g>
</svg>