<svg xmlns="http://www.w3.org/2000/svg" xmlns:xlink="http://www.w3.org/1999/xlink" width="375" height="144" viewBox="0 0 375 144">
    <defs>
        <path id="a" d="M0 4h377v140H0z"/>
    </defs>
    <g fill="none" fill-rule="evenodd">
        <path fill="#FF9E00" fill-opacity=".573" d="M0 0h377v140H0z"/>
        <mask id="b" fill="#fff">
            <use xlink:href="#a"/>
        </mask>
        <use fill="#FFC76D" xlink:href="#a"/>
        <g fill-rule="nonzero" mask="url(#b)">
            <path fill="#F29E33" d="M147.005 227.081c21.423-.028 38.782-17.393 38.81-38.822V68.913A38.862 38.862 0 0 0 174.46 41.43a38.836 38.836 0 0 0-27.456-11.405H11.643A38.836 38.836 0 0 0-15.813 41.43a38.862 38.862 0 0 0-11.353 27.484V188.26c.018 21.433 17.383 38.804 38.809 38.822h135.362z"/>
            <path fill="#FFF" d="M11.727 33.994c-19.272.018-34.89 15.641-34.908 34.92v119.345c.018 19.278 15.636 34.901 34.908 34.92h135.345c19.272-.019 34.89-15.642 34.908-34.92V68.913c-.018-19.278-15.636-34.9-34.908-34.92H11.727zm0-7.822h135.345c23.586.028 42.7 19.148 42.727 42.741V188.26c-.028 23.594-19.14 42.713-42.727 42.741H11.727c-23.586-.028-42.7-19.147-42.727-42.74V68.912a42.698 42.698 0 0 1 12.5-30.237 42.67 42.67 0 0 1 30.227-12.504z"/>
            <path fill="#FFF" stroke="#EC6833" stroke-linecap="round" stroke-linejoin="round" stroke-width="5" d="M60.079 73.57h38.507a8.654 8.654 0 0 0 8.673-8.693V53.924a8.677 8.677 0 0 0-8.673-8.692H60.08a8.671 8.671 0 0 0-8.69 8.692V64.91a8.724 8.724 0 0 0 8.69 8.66z"/>
            <path fill="#EC6833" stroke="#EC6833" stroke-linecap="round" stroke-linejoin="round" stroke-width="5" d="M34.73 70.22c.02 11 8.944 19.905 19.941 19.896h49.223c10.997.01 19.921-8.896 19.94-19.896a19.933 19.933 0 0 1 5.788-14.213 19.92 19.92 0 0 1 14.169-5.885h2.428a19.92 19.92 0 0 1 14.169 5.885 19.934 19.934 0 0 1 5.788 14.213v120.585a19.95 19.95 0 0 1-5.853 14.1 19.937 19.937 0 0 1-14.104 5.83H12.279c-10.967-.055-19.83-8.96-19.84-19.93V70.22a19.934 19.934 0 0 1 5.77-14.196 19.92 19.92 0 0 1 14.137-5.902h2.428a19.92 19.92 0 0 1 14.169 5.885 19.933 19.933 0 0 1 5.788 14.213z"/>
        </g>
        <g fill="#FFF" fill-rule="nonzero" mask="url(#b)">
            <g transform="rotate(-30 187.275 -373.892)">
                <path d="M24 29.827h121.553V38H24z"/>
                <rect width="14.304" height="64.368" x="122.309" y="1" rx="3.46"/>
                <path d="M134.825 9.046v48.276h7.775c2.618 0 4.74-2.14 4.74-4.78V13.826c0-2.64-2.122-4.78-4.74-4.78h-7.775z"/>
                <path d="M145.553 18.88v29.502h6.113c2.049 0 3.712-1.629 3.72-3.644V22.54c0-2.021-1.665-3.66-3.72-3.66h-6.113z"/>
                <rect width="14.304" height="64.368" x="18.709" y=".108" rx="3.46"/>
                <path d="M21.391 8.154V56.43H13.57c-2.592 0-4.694-2.14-4.694-4.78V12.933c0-2.64 2.102-4.78 4.694-4.78h7.822z"/>
                <path d="M10.663 17.988V47.49H4.555c-2.051 0-3.717-1.63-3.726-3.644V21.648c0-2.022 1.668-3.66 3.726-3.66h6.108z"/>
            </g>
        </g>
        <g fill-rule="nonzero" mask="url(#b)">
            <g transform="translate(286 82)">
                <path fill="#FFF" d="M61.201 0H28.8c-6.316-.001-12.322 2.081-16.462 5.708-4.14 3.627-6.009 8.442-5.12 13.198l1.232 6.606c.92 4.893 3.442 9.53 7.334 13.488l10.04-6.378c-1.738-2.611-2.896-5.423-3.427-8.321l-.932-5.052c-.4-2.128.433-4.283 2.284-5.906 1.852-1.623 4.54-2.555 7.365-2.553h27.774c2.826-.002 5.513.93 7.365 2.553 1.851 1.623 2.685 3.778 2.284 5.906l-.962 5.052c-.532 2.898-1.69 5.71-3.427 8.32L74.187 39c3.902-3.955 6.435-8.593 7.364-13.488l1.232-6.606c.889-4.756-.98-9.57-5.12-13.198C73.523 2.081 67.517-.002 61.201 0z"/>
                <path fill="#F29E33" d="M61.628 0H45v10.79h14.252c2.9-.002 5.658.93 7.559 2.553 1.9 1.623 2.756 3.778 2.344 5.906l-.987 5.052c-.545 2.898-1.734 5.71-3.517 8.32L74.955 39c4.005-3.955 6.604-8.593 7.558-13.488l1.264-6.606c.912-4.756-1.005-9.57-5.254-13.198C74.273 2.081 68.11-.002 61.628 0z"/>
                <path fill="#EC6833" d="M64.758 23.18l14.555 12.213-7.07 8.427-14.556-12.213zM32.313 31.607L17.758 43.82l-7.07-8.427L25.241 23.18z"/>
                <circle cx="44.5" cy="64.5" r="38.5" fill="#FFF" transform="rotate(-80.58 44.5 64.5)"/>
                <path fill="#F29E33" d="M38 39.902c-.002 1.812-1.214 3.38-2.913 3.765-6.488 1.4-11.336 7.058-11.942 13.936-.06.79-.695 1.4-1.456 1.397h-3.233a1.397 1.397 0 0 1-1.028-.425A1.52 1.52 0 0 1 17 57.512c-.002-10.33 6.914-19.26 16.601-21.436a3.561 3.561 0 0 1 3.08.812A3.896 3.896 0 0 1 38 39.902zM45 26.03V103c21.157-.584 38-17.649 38-38.5S66.157 26.584 45 26v.03z"/>
            </g>
        </g>
    </g>
</svg>
