<?xml version="1.0" encoding="UTF-8"?>
<svg width="327px" height="84px" viewBox="0 0 327 84" version="1.1" xmlns="http://www.w3.org/2000/svg" xmlns:xlink="http://www.w3.org/1999/xlink">
    <!-- Generator: Sketch 50.2 (55047) - http://www.bohemiancoding.com/sketch -->
    <title>Productivity</title>
    <desc>Created with Sketch.</desc>
    <defs>
        <rect id="path-1" x="0" y="0" width="327" height="84"></rect>
        <path d="M1.87988281,5.21972656 L8.98046875,5.21972656 C10.3841216,5.21972656 11.5156207,5.61539318 12.375,6.40673828 C13.2343793,7.19808338 13.6640625,8.30988867 13.6640625,9.7421875 C13.6640625,10.9739645 13.2809283,12.0463822 12.5146484,12.9594727 C11.7483686,13.8725632 10.5703204,14.3291016 8.98046875,14.3291016 L4.01757812,14.3291016 L4.01757812,21 L1.87988281,21 L1.87988281,5.21972656 Z M11.5048828,9.75292969 C11.5048828,8.59276764 11.0751996,7.8050151 10.2158203,7.38964844 C9.7431617,7.16764212 9.0950562,7.05664062 8.27148438,7.05664062 L4.01757812,7.05664062 L4.01757812,12.5244141 L8.27148438,12.5244141 C9.23112459,12.5244141 10.0099254,12.3203145 10.6079102,11.9121094 C11.2058949,11.5039042 11.5048828,10.7841848 11.5048828,9.75292969 Z M16.1455078,9.49511719 L17.9824219,9.49511719 L17.9824219,11.4824219 C18.1328133,11.0957012 18.5016247,10.62484 19.0888672,10.0698242 C19.6761097,9.51480842 20.3528608,9.23730469 21.1191406,9.23730469 C21.1549481,9.23730469 21.2158199,9.24088538 21.3017578,9.24804688 C21.3876957,9.25520837 21.5345042,9.26953114 21.7421875,9.29101562 L21.7421875,11.3320312 C21.6276036,11.3105468 21.5219731,11.296224 21.425293,11.2890625 C21.3286128,11.281901 21.2229823,11.2783203 21.1083984,11.2783203 C20.1344352,11.2783203 19.3860703,11.591631 18.8632812,12.2182617 C18.3404922,12.8448925 18.0791016,13.5664022 18.0791016,14.3828125 L18.0791016,21 L16.1455078,21 L16.1455078,9.49511719 Z M27.9833984,19.7539062 C29.2653059,19.7539062 30.1443661,19.2687223 30.6206055,18.2983398 C31.0968448,17.3279574 31.3349609,16.2483783 31.3349609,15.0595703 C31.3349609,13.9853462 31.1630877,13.111657 30.8193359,12.4384766 C30.2750624,11.3785754 29.3369207,10.8486328 28.0048828,10.8486328 C26.8232363,10.8486328 25.9638699,11.2998002 25.4267578,12.2021484 C24.8896458,13.1044967 24.6210938,14.1930275 24.6210938,15.4677734 C24.6210938,16.6923889 24.8896458,17.7128865 25.4267578,18.5292969 C25.9638699,19.3457072 26.8160749,19.7539062 27.9833984,19.7539062 Z M28.0585938,9.16210938 C29.541023,9.16210938 30.7942657,9.65624506 31.8183594,10.6445312 C32.842453,11.6328174 33.3544922,13.0865789 33.3544922,15.0058594 C33.3544922,16.8606864 32.9033248,18.3932231 32.0009766,19.6035156 C31.0986283,20.8138081 29.6985772,21.4189453 27.8007812,21.4189453 C26.218091,21.4189453 24.9612677,20.8836317 24.0302734,19.8129883 C23.0992792,18.7423449 22.6337891,17.3046965 22.6337891,15.5 C22.6337891,13.5663966 23.1243441,12.0266984 24.1054688,10.8808594 C25.0865934,9.73502031 26.4042886,9.16210938 28.0585938,9.16210938 Z M36.8779297,15.3818359 C36.8779297,16.6136129 37.1393203,17.6448526 37.6621094,18.4755859 C38.1848984,19.3063193 39.0227807,19.7216797 40.1757812,19.7216797 C41.070968,19.7216797 41.8068005,19.3367552 42.3833008,18.5668945 C42.9598011,17.7970339 43.2480469,16.69239 43.2480469,15.2529297 C43.2480469,13.7991464 42.9508493,12.723148 42.3564453,12.0249023 C41.7620413,11.3266567 41.0279992,10.9775391 40.1542969,10.9775391 C39.1803337,10.9775391 38.3907908,11.3499312 37.7856445,12.0947266 C37.1804983,12.839522 36.8779297,13.9352141 36.8779297,15.3818359 Z M39.7890625,9.29101562 C40.6699263,9.29101562 41.4075491,9.47721168 42.0019531,9.84960938 C42.3457048,10.0644542 42.7360004,10.440427 43.1728516,10.9775391 L43.1728516,5.16601562 L45.03125,5.16601562 L45.03125,21 L43.2910156,21 L43.2910156,19.3994141 C42.8398415,20.108402 42.3063182,20.6204411 41.6904297,20.9355469 C41.0745412,21.2506526 40.3691446,21.4082031 39.5742188,21.4082031 C38.2923113,21.4082031 37.1822964,20.8693088 36.2441406,19.7915039 C35.3059849,18.713699 34.8369141,17.2796313 34.8369141,15.4892578 C34.8369141,13.8134682 35.2648069,12.361497 36.1206055,11.1333008 C36.976404,9.90510454 38.1992108,9.29101562 39.7890625,9.29101562 Z M49.8222656,9.49511719 L49.8222656,17.1328125 C49.8222656,17.720055 49.9153637,18.1998679 50.1015625,18.5722656 C50.4453142,19.2597691 51.0862583,19.6035156 52.0244141,19.6035156 C53.370775,19.6035156 54.2874325,19.0019591 54.7744141,17.7988281 C55.0393893,17.1542937 55.171875,16.2698624 55.171875,15.1455078 L55.171875,9.49511719 L57.1054688,9.49511719 L57.1054688,21 L55.2792969,21 L55.3007812,19.3027344 C55.050129,19.7395855 54.7386086,20.1083969 54.3662109,20.4091797 C53.628577,21.0107452 52.7334037,21.3115234 51.6806641,21.3115234 C50.0406819,21.3115234 48.9235056,20.7636774 48.3291016,19.6679688 C48.0068343,19.0807262 47.8457031,18.2965544 47.8457031,17.3154297 L47.8457031,9.49511719 L49.8222656,9.49511719 Z M64.5605469,9.16210938 C65.8567773,9.16210938 66.9112915,9.47721039 67.7241211,10.1074219 C68.5369507,10.7376334 69.0257153,11.8225834 69.1904297,13.3623047 L67.3105469,13.3623047 C67.195963,12.6533168 66.9345724,12.0642927 66.5263672,11.5952148 C66.118162,11.126137 65.4628951,10.8916016 64.5605469,10.8916016 C63.3287699,10.8916016 62.4479193,11.493158 61.9179688,12.6962891 C61.574217,13.4768919 61.4023438,14.4400984 61.4023438,15.5859375 C61.4023438,16.7389381 61.6458309,17.709306 62.1328125,18.4970703 C62.6197941,19.2848347 63.3860625,19.6787109 64.4316406,19.6787109 C65.233728,19.6787109 65.869301,19.4334334 66.3383789,18.9428711 C66.8074568,18.4523087 67.1315095,17.7809287 67.3105469,16.9287109 L69.1904297,16.9287109 C68.9755849,18.4541092 68.4384809,19.5694952 67.5791016,20.2749023 C66.7197223,20.9803095 65.6204494,21.3330078 64.28125,21.3330078 C62.7773362,21.3330078 61.577804,20.7833714 60.6826172,19.684082 C59.7874304,18.5847927 59.3398438,17.2115968 59.3398438,15.5644531 C59.3398438,13.5449118 59.8303987,11.9729874 60.8115234,10.8486328 C61.7926481,9.72427823 63.0423101,9.16210938 64.5605469,9.16210938 Z M71.5107422,6.28320312 L73.4658203,6.28320312 L73.4658203,9.49511719 L75.3027344,9.49511719 L75.3027344,11.0742188 L73.4658203,11.0742188 L73.4658203,18.5830078 C73.4658203,18.9840515 73.6018867,19.2526035 73.8740234,19.3886719 C74.0244148,19.4674483 74.2750633,19.5068359 74.6259766,19.5068359 C74.719076,19.5068359 74.8193354,19.5050456 74.9267578,19.5014648 C75.0341802,19.4978841 75.1595045,19.4889324 75.3027344,19.4746094 L75.3027344,21 C75.0807281,21.0644534 74.8497733,21.1110025 74.6098633,21.1396484 C74.3699532,21.1682944 74.110353,21.1826172 73.8310547,21.1826172 C72.9287064,21.1826172 72.3164079,20.9516625 71.9941406,20.4897461 C71.6718734,20.0278297 71.5107422,19.4280636 71.5107422,18.6904297 L71.5107422,11.0742188 L69.953125,11.0742188 L69.953125,9.49511719 L71.5107422,9.49511719 L71.5107422,6.28320312 Z M77.2363281,9.54882812 L79.2021484,9.54882812 L79.2021484,21 L77.2363281,21 L77.2363281,9.54882812 Z M77.2363281,5.21972656 L79.2021484,5.21972656 L79.2021484,7.41113281 L77.2363281,7.41113281 L77.2363281,5.21972656 Z M83.0693359,9.49511719 L86.1416016,18.8623047 L89.3535156,9.49511719 L91.4697266,9.49511719 L87.1298828,21 L85.0673828,21 L80.8242188,9.49511719 L83.0693359,9.49511719 Z M93.1240234,9.54882812 L95.0898438,9.54882812 L95.0898438,21 L93.1240234,21 L93.1240234,9.54882812 Z M93.1240234,5.21972656 L95.0898438,5.21972656 L95.0898438,7.41113281 L93.1240234,7.41113281 L93.1240234,5.21972656 Z M98.3984375,6.28320312 L100.353516,6.28320312 L100.353516,9.49511719 L102.19043,9.49511719 L102.19043,11.0742188 L100.353516,11.0742188 L100.353516,18.5830078 C100.353516,18.9840515 100.489582,19.2526035 100.761719,19.3886719 C100.91211,19.4674483 101.162759,19.5068359 101.513672,19.5068359 C101.606771,19.5068359 101.707031,19.5050456 101.814453,19.5014648 C101.921876,19.4978841 102.0472,19.4889324 102.19043,19.4746094 L102.19043,21 C101.968423,21.0644534 101.737469,21.1110025 101.497559,21.1396484 C101.257649,21.1682944 100.998048,21.1826172 100.71875,21.1826172 C99.8164017,21.1826172 99.2041032,20.9516625 98.8818359,20.4897461 C98.5595687,20.0278297 98.3984375,19.4280636 98.3984375,18.6904297 L98.3984375,11.0742188 L96.8408203,11.0742188 L96.8408203,9.49511719 L98.3984375,9.49511719 L98.3984375,6.28320312 Z M111.310547,9.49511719 L113.448242,9.49511719 C113.176105,10.2327511 112.570968,11.915677 111.632812,14.5439453 C110.930986,16.5205177 110.343752,18.1318297 109.871094,19.3779297 C108.753901,22.3141423 107.966148,24.104489 107.507812,24.7490234 C107.049477,25.3935579 106.261724,25.7158203 105.144531,25.7158203 C104.872394,25.7158203 104.662924,25.7050782 104.516113,25.6835938 C104.369303,25.6621093 104.188478,25.6227216 103.973633,25.5654297 L103.973633,23.8037109 C104.310223,23.8968104 104.55371,23.9541015 104.704102,23.9755859 C104.854493,23.9970704 104.986979,24.0078125 105.101562,24.0078125 C105.459637,24.0078125 105.722818,23.9487311 105.891113,23.8305664 C106.059408,23.7124018 106.200846,23.5673837 106.31543,23.3955078 C106.351237,23.3382159 106.480142,23.044599 106.702148,22.5146484 C106.924155,21.9846979 107.085286,21.5908216 107.185547,21.3330078 L102.931641,9.49511719 L105.123047,9.49511719 L108.206055,18.8623047 L111.310547,9.49511719 Z" id="path-3"></path>
    </defs>
    <g id="Page-1" stroke="none" stroke-width="1" fill="none" fill-rule="evenodd">
        <g id="Productivity">
            <g id="Mask" fill="#FFFFFF" fill-rule="nonzero">
                <rect id="path-1" x="0" y="0" width="327" height="84"></rect>
            </g>
            <g id="Clipped">
                <mask id="mask-2" fill="white">
                    <use xlink:href="#path-1"></use>
                </mask>
                <g id="path-1"></g>
                <g id="Group" mask="url(#mask-2)">
                    <g transform="translate(1.000000, -7.000000)">
                        <rect id="Rectangle-2" fill="#FFFFFF" fill-rule="nonzero" x="2" y="30" width="49" height="58"></rect>
                        <g id="Group-9" stroke-width="1" fill="none" fill-rule="evenodd">
                            <g id="Group-5">
                                <polygon id="Rectangle-8" fill="#FF5200" fill-rule="nonzero" points="242.811049 7 326 7 326 91 162 91"></polygon>
                                <g id="Asset-6" transform="translate(268.839209, 49.000000) rotate(18.000000) translate(-268.839209, -49.000000) translate(193.339209, 23.000000)" fill-rule="nonzero">
                                    <path d="M33.9486748,3.59724561 C33.9486748,3.59724561 87.1870448,1.82430977 93.9962178,2.73876946 C100.805391,3.65322915 105.63131,5.20781062 117.61898,18.4446146 C124.529645,26.1082057 131.810953,33.4027937 139.434777,40.3002012 C139.434777,40.3002012 143.489431,44.6667462 137.627812,45.306868 C133.044291,45.8098209 128.813349,44.4381313 127.623396,42.472043 C126.433444,40.5059547 113.608399,22.1024534 111.140349,19.8391657 C108.6723,17.5758779 102.502175,8.59131148 94.3928687,6.89956105 C86.2835622,5.20781062 29.4123261,11.8098308 29.4123261,11.8098308 L33.9486748,3.59724561 Z" id="Shape" fill="#FF5200"></path>
                                    <path d="M1.24602514,2.86157957 C1.24602514,2.86157957 87.1921938,0.576522673 93.9797374,1.46769486 C100.767281,2.35886705 105.637564,4.02695858 117.625953,17.1888863 C124.53328,24.8447683 131.807486,32.1356877 139.421019,39.0340302 C139.421019,39.0340302 143.497953,43.3984889 137.635984,44.0383048 C133.03015,44.5638679 128.820992,43.1699832 127.608931,41.2048343 C126.396869,39.2396853 113.593094,20.8449773 111.191009,18.582771 C108.788923,16.3205647 102.508242,7.34029108 94.3984495,5.64934898 C86.2886572,3.95840688 3.20736078,13.3499907 3.20736078,13.3499907 L1.24602514,2.86157957 Z" id="Shape" fill="#FFFFFF"></path>
                                    <path d="M127.751891,2.3384553 C127.751891,2.3384553 63.2873554,2.31456851 56.5535611,3.46838613 C49.8197668,4.62220375 45.0908563,6.13800337 33.5627749,19.5087134 C26.9142332,27.2668073 19.8879687,34.6669325 12.5114957,41.6801108 C14.2931573,40.195485 13.1469683,43.7807373 13.0438284,45.0805609 C12.9594736,46.1436444 11.7776493,46.4289009 14.3856262,46.6121155 C18.940199,46.9967214 23.102512,45.5035457 24.2139149,43.5578924 C25.3253178,41.6122392 37.6161268,23.0380379 39.9478937,20.6399072 C42.2796607,18.2417764 48.207143,9.32796973 56.2484701,7.51805974 C64.2897972,5.70814975 130.716282,11.461914 130.716282,11.461914 L127.751891,2.3384553 Z" id="Shape" fill="#FF5200"></path>
                                    <path d="M148.276992,1.27935174 C148.276992,1.27935174 63.2926146,1.05346382 56.559237,2.20549222 C49.8258594,3.35752062 45.0972415,4.96132486 33.5916643,18.311301 C26.9248127,26.0397104 19.8846069,33.4131033 12.4981061,40.4031397 C12.4981061,40.4031397 8.59754114,44.9208982 14.3939115,45.3500852 C18.9482024,45.7340947 23.1102578,44.2658232 24.221592,42.3005983 C25.3329262,40.3353733 37.6229745,21.8351526 39.9545972,19.5310958 C42.2862198,17.227039 48.278708,8.23669972 56.2541649,6.33924118 C64.2296218,4.44178264 146.555513,11.6927849 146.555513,11.6927849 L148.276992,1.27935174 Z" id="Shape" fill="#FFFFFF"></path>
                                    <path d="M149.877828,1.81705054 C137.928662,0.205327891 125.86706,-0.335710314 113.827728,0.19997824 C101.752267,1.06545355 98.953757,2.47754485 93.8194824,4.91454113 C89.7429125,6.73659442 83.9475725,10.9500927 79.3641858,11.883895 C78.1009584,12.1554624 76.818876,12.3230097 75.5300065,12.3849596 C74.2508908,12.3512974 72.9762852,12.214225 71.7178628,11.9749976 C67.0683695,11.1550736 61.162852,7.14655641 57.0642465,5.39283012 C51.8197944,3.16081484 48.9772132,1.72594787 36.901752,1.15655622 C24.8149347,0.918100551 12.7308893,1.76397186 0.785545988,3.68465516 C-0.250123129,3.91241182 0.0363385418,6.2127541 0.0363385418,6.2127541 C0.0363385418,6.2127541 0.212622647,11.2917276 0.212622647,12.7038189 C0.212622647,14.1159102 1.79917959,14.7080776 5.61132336,17.5550358 C9.42346714,20.4019941 9.57771573,32.4047702 14.5357062,40.330702 C19.4936966,48.2566338 30.8419859,51.718535 39.9206173,51.718535 C48.9992487,51.718535 57.086282,48.0061015 60.9424968,42.4032876 C64.2478238,37.5520707 68.2582872,27.2802453 70.0211282,24.4788383 C71.3490201,22.6696281 73.4108922,21.5956951 75.6078407,21.5689805 C77.8047892,21.5422659 79.8905351,22.5657644 81.2592399,24.3421843 C83.066152,27.0980399 87.3190061,37.255987 90.7565461,42.0161013 C94.7229385,47.5278125 102.898114,50.9213867 111.998781,50.8075084 C121.099448,50.6936301 132.249417,47.0267478 137.09723,38.8730593 C141.945043,30.7193709 141.834866,18.6710435 145.470725,15.8468609 C149.106585,13.0226783 150.759248,12.1799786 150.737213,10.85899 C150.715177,9.53800135 150.737213,4.36792514 150.737213,4.36792514 C150.737213,4.36792514 151.023675,2.02203153 149.877828,1.81705054 Z M54.3098074,44.0659112 C47.2143722,50.1925654 31.7234064,48.6210444 24.5398291,45.2046945 C16.0341211,41.1734016 13.5220726,29.6261389 12.0016222,21.8824124 C10.4811718,14.1386859 13.6102146,8.53587204 19.6479452,6.94157542 C24.7911411,5.81967145 30.0368696,5.27747868 35.2931596,5.32450312 C40.3294557,5.31197247 45.3453655,5.98586655 50.2112019,7.32876174 C63.4325098,10.85899 63.785078,19.8326024 63.8291491,23.271728 C63.4826281,31.2421739 60.0526811,38.734598 54.3098074,44.0659112 Z M139.212639,20.4019941 C137.912544,28.1684962 135.620851,39.784086 127.22532,44.0431355 C120.10785,47.6416908 104.660955,49.5776224 97.4333066,43.6331736 C91.583455,38.4612425 87.9937155,31.073446 87.4732546,23.135074 C87.4732546,19.7642754 87.6495387,10.790663 100.694563,6.91879975 C105.533618,5.48465806 110.535038,4.71881909 115.568534,4.64123314 C120.811258,4.46675913 126.056858,4.87912098 131.213748,5.87111911 C137.273514,6.98712675 140.490699,12.5216136 139.212639,20.4019941 Z" id="Shape" fill="#FFFFFF"></path>
                                </g>
                                <rect id="Rectangle-7" stroke="#FF5200" stroke-width="3" x="0.5" y="8.5" width="324" height="81"></rect>
                            </g>
                            <g id="Productivity" transform="translate(10.000000, 35.000000)">
                                <g>
                                    <use fill="#000000" xlink:href="#path-3"></use>
                                    <use fill="#FF5200" xlink:href="#path-3"></use>
                                </g>
                            </g>
                        </g>
                    </g>
                </g>
            </g>
        </g>
    </g>
</svg>