<?xml version="1.0" encoding="UTF-8"?>
<svg width="327px" height="84px" viewBox="0 0 327 84" version="1.1" xmlns="http://www.w3.org/2000/svg" xmlns:xlink="http://www.w3.org/1999/xlink">
    <!-- Generator: Sketch 49.3 (51167) - http://www.bohemiancoding.com/sketch -->
    <title>Group 13</title>
    <desc>Created with Sketch.</desc>
    <defs>
        <rect id="path-1" x="0" y="0" width="327" height="84"></rect>
    </defs>
    <g id="Sprint-3" stroke="none" stroke-width="1" fill="none" fill-rule="evenodd">
        <g id="VIZ-Discover---UPDATED-NEW" transform="translate(-25.000000, -176.000000)">
            <g id="Group-13" transform="translate(25.000000, 176.000000)">
                <mask id="mask-2" fill="white">
                    <use xlink:href="#path-1"></use>
                </mask>
                <use id="Mask" fill="#FFFFFF" xlink:href="#path-1"></use>
                <g mask="url(#mask-2)">
                    <g transform="translate(-2.000000, -17.000000)">
                        <rect id="Rectangle-2" fill="#FFFFFF" x="5" y="40" width="49" height="58"></rect>
                        <g id="Group-9" stroke-width="1" fill="none" transform="translate(2.000000, 10.000000)">
                            <g id="Group-5">
                                <polygon id="Rectangle-8" fill="#FF5200" points="243.811049 7 327 7 327 91 163 91"></polygon>
                                <g id="Asset-6" transform="translate(269.839209, 49.000000) rotate(18.000000) translate(-269.839209, -49.000000) translate(194.339209, 23.000000)" fill-rule="nonzero">
                                    <path d="M33.9486748,3.59724561 C33.9486748,3.59724561 87.1870448,1.82430977 93.9962178,2.73876946 C100.805391,3.65322915 105.63131,5.20781062 117.61898,18.4446146 C124.529645,26.1082057 131.810953,33.4027937 139.434777,40.3002012 C139.434777,40.3002012 143.489431,44.6667462 137.627812,45.306868 C133.044291,45.8098209 128.813349,44.4381313 127.623396,42.472043 C126.433444,40.5059547 113.608399,22.1024534 111.140349,19.8391657 C108.6723,17.5758779 102.502175,8.59131148 94.3928687,6.89956105 C86.2835622,5.20781062 29.4123261,11.8098308 29.4123261,11.8098308 L33.9486748,3.59724561 Z" id="Shape" fill="#FF5200"></path>
                                    <path d="M1.24602514,2.86157957 C1.24602514,2.86157957 87.1921938,0.576522673 93.9797374,1.46769486 C100.767281,2.35886705 105.637564,4.02695858 117.625953,17.1888863 C124.53328,24.8447683 131.807486,32.1356877 139.421019,39.0340302 C139.421019,39.0340302 143.497953,43.3984889 137.635984,44.0383048 C133.03015,44.5638679 128.820992,43.1699832 127.608931,41.2048343 C126.396869,39.2396853 113.593094,20.8449773 111.191009,18.582771 C108.788923,16.3205647 102.508242,7.34029108 94.3984495,5.64934898 C86.2886572,3.95840688 3.20736078,13.3499907 3.20736078,13.3499907 L1.24602514,2.86157957 Z" id="Shape" fill="#FFFFFF"></path>
                                    <path d="M127.751891,2.3384553 C127.751891,2.3384553 63.2873554,2.31456851 56.5535611,3.46838613 C49.8197668,4.62220375 45.0908563,6.13800337 33.5627749,19.5087134 C26.9142332,27.2668073 19.8879687,34.6669325 12.5114957,41.6801108 C14.2931573,40.195485 13.1469683,43.7807373 13.0438284,45.0805609 C12.9594736,46.1436444 11.7776493,46.4289009 14.3856262,46.6121155 C18.940199,46.9967214 23.102512,45.5035457 24.2139149,43.5578924 C25.3253178,41.6122392 37.6161268,23.0380379 39.9478937,20.6399072 C42.2796607,18.2417764 48.207143,9.32796973 56.2484701,7.51805974 C64.2897972,5.70814975 130.716282,11.461914 130.716282,11.461914 L127.751891,2.3384553 Z" id="Shape" fill="#FF5200"></path>
                                    <path d="M148.276992,1.27935174 C148.276992,1.27935174 63.2926146,1.05346382 56.559237,2.20549222 C49.8258594,3.35752062 45.0972415,4.96132486 33.5916643,18.311301 C26.9248127,26.0397104 19.8846069,33.4131033 12.4981061,40.4031397 C12.4981061,40.4031397 8.59754114,44.9208982 14.3939115,45.3500852 C18.9482024,45.7340947 23.1102578,44.2658232 24.221592,42.3005983 C25.3329262,40.3353733 37.6229745,21.8351526 39.9545972,19.5310958 C42.2862198,17.227039 48.278708,8.23669972 56.2541649,6.33924118 C64.2296218,4.44178264 146.555513,11.6927849 146.555513,11.6927849 L148.276992,1.27935174 Z" id="Shape" fill="#FFFFFF"></path>
                                    <path d="M149.877828,1.81705054 C137.928662,0.205327891 125.86706,-0.335710314 113.827728,0.19997824 C101.752267,1.06545355 98.953757,2.47754485 93.8194824,4.91454113 C89.7429125,6.73659442 83.9475725,10.9500927 79.3641858,11.883895 C78.1009584,12.1554624 76.818876,12.3230097 75.5300065,12.3849596 C74.2508908,12.3512974 72.9762852,12.214225 71.7178628,11.9749976 C67.0683695,11.1550736 61.162852,7.14655641 57.0642465,5.39283012 C51.8197944,3.16081484 48.9772132,1.72594787 36.901752,1.15655622 C24.8149347,0.918100551 12.7308893,1.76397186 0.785545988,3.68465516 C-0.250123129,3.91241182 0.0363385418,6.2127541 0.0363385418,6.2127541 C0.0363385418,6.2127541 0.212622647,11.2917276 0.212622647,12.7038189 C0.212622647,14.1159102 1.79917959,14.7080776 5.61132336,17.5550358 C9.42346714,20.4019941 9.57771573,32.4047702 14.5357062,40.330702 C19.4936966,48.2566338 30.8419859,51.718535 39.9206173,51.718535 C48.9992487,51.718535 57.086282,48.0061015 60.9424968,42.4032876 C64.2478238,37.5520707 68.2582872,27.2802453 70.0211282,24.4788383 C71.3490201,22.6696281 73.4108922,21.5956951 75.6078407,21.5689805 C77.8047892,21.5422659 79.8905351,22.5657644 81.2592399,24.3421843 C83.066152,27.0980399 87.3190061,37.255987 90.7565461,42.0161013 C94.7229385,47.5278125 102.898114,50.9213867 111.998781,50.8075084 C121.099448,50.6936301 132.249417,47.0267478 137.09723,38.8730593 C141.945043,30.7193709 141.834866,18.6710435 145.470725,15.8468609 C149.106585,13.0226783 150.759248,12.1799786 150.737213,10.85899 C150.715177,9.53800135 150.737213,4.36792514 150.737213,4.36792514 C150.737213,4.36792514 151.023675,2.02203153 149.877828,1.81705054 Z M54.3098074,44.0659112 C47.2143722,50.1925654 31.7234064,48.6210444 24.5398291,45.2046945 C16.0341211,41.1734016 13.5220726,29.6261389 12.0016222,21.8824124 C10.4811718,14.1386859 13.6102146,8.53587204 19.6479452,6.94157542 C24.7911411,5.81967145 30.0368696,5.27747868 35.2931596,5.32450312 C40.3294557,5.31197247 45.3453655,5.98586655 50.2112019,7.32876174 C63.4325098,10.85899 63.785078,19.8326024 63.8291491,23.271728 C63.4826281,31.2421739 60.0526811,38.734598 54.3098074,44.0659112 Z M139.212639,20.4019941 C137.912544,28.1684962 135.620851,39.784086 127.22532,44.0431355 C120.10785,47.6416908 104.660955,49.5776224 97.4333066,43.6331736 C91.583455,38.4612425 87.9937155,31.073446 87.4732546,23.135074 C87.4732546,19.7642754 87.6495387,10.790663 100.694563,6.91879975 C105.533618,5.48465806 110.535038,4.71881909 115.568534,4.64123314 C120.811258,4.46675913 126.056858,4.87912098 131.213748,5.87111911 C137.273514,6.98712675 140.490699,12.5216136 139.212639,20.4019941 Z" id="Shape" fill="#FFFFFF"></path>
                                </g>
                                <rect id="Rectangle-7" stroke="#FF5200" stroke-width="3" x="1.5" y="8.5" width="324" height="81"></rect>
                            </g>
                            <text id="Productivity" font-family="Lato-Bold, Lato" font-size="22" font-weight="bold" line-spacing="26" fill="#FF5200">
                                <tspan x="11" y="56">Productivity</tspan>
                            </text>
                        </g>
                    </g>
                </g>
            </g>
        </g>
    </g>
</svg>