<svg xmlns="http://www.w3.org/2000/svg" xmlns:xlink="http://www.w3.org/1999/xlink" width="375" height="140" viewBox="0 0 375 140">
    <defs>
        <path id="a" d="M0 0h375v140H0z"/>
    </defs>
    <g fill="none" fill-rule="evenodd">
        <path fill="#FEB692" d="M0 0h377v140H0z"/>
        <mask id="b" fill="#fff">
            <use xlink:href="#a"/>
        </mask>
        <g mask="url(#b)">
            <path fill="#FFF" d="M-.13 20.42L167.903 20a4.904 4.904 0 0 1 3.464 1.43 4.61 4.61 0 0 1 1.353 3.41l.275 106.23a4.536 4.536 0 0 1-1.36 3.439 4.83 4.83 0 0 1-3.523 1.375l-167.94.114a4.862 4.862 0 0 1-3.436-1.272 4.574 4.574 0 0 1-1.487-3.263L-5 25.093c.05-2.58 2.21-4.654 4.87-4.674z"/>
            <path fill="#EA8B33" d="M9.14 95L167 94.778 166.797 30 9 30.308z"/>
            <path fill="#FF5200" d="M64.078 130l48.922-.19-.078-27.81-48.922.19z"/>
            <path fill="#FFF" d="M2.73 21c28.041-.196 55.848-.196 83.85-.098 27.977-.195 55.958-.297 83.944-.305 2.614 0 5.229-.831 5.7-1.919 3.111-7.44 6.667-15.432 10.458-24.095 3.922-9.372 8.42-19.55 13.178-30.548.732-1.808-1.477-3.128-4.968-3.03-36.265 0-72.434.037-108.507.11-36.122.208-72.204.232-108.39.306-3.4-.062-5.648 1.502-4.824 3.103C-21.927-24.369-17.68-14.3-13.495-5.05A654.3 654.3 0 0 1-3.036 19.057c.627 1.137 3.15 1.82 5.765 1.943z"/>
            <path fill="#F29E33" d="M1.563 16.999c26.92 0 53.585-.077 80.559-.19 26.974-.115 53.678.126 80.45 0 2.692-.14 5.142-.775 5.613-1.714 3.002-6.754 6.407-13.888 10.028-21.415 4.038-8.238 8.076-17.34 12.639-27.114.767-1.396-1.535-2.767-4.805-2.539-34.687-.089-69.347.076-104.087 0-34.686.229-69.386.267-104.06.355-3.337 0-5.558 1.27-4.724 2.768 4.63 9.609 8.843 18.634 12.787 27.05A2058.903 2058.903 0 0 1-3.915 15.475c.498.813 2.908 1.562 5.478 1.524z"/>
            <g fill="#FFF">
                <path d="M17 34.187L27.215 34l.03 10.239-10.061.047zM17 46.187L27.215 46l.03 10.239-10.061.047zM16.947 58.156l10.215-.187.031 10.239-10.062.046zM29.02 34.194c3.336-.108 6.72-.23 10.226-.184-.092 3.354-.108 6.722-.092 10.045-3.445.291-6.736.23-10.104.215.015-3.37-.092-6.769-.03-10.076zM29.02 46.194c3.336-.108 6.72-.23 10.226-.184-.092 3.354-.108 6.722-.092 10.045-3.445.291-6.736.23-10.104.215.015-3.37-.092-6.769-.03-10.076zM28.966 58.162c3.338-.107 6.721-.23 10.227-.183a314.766 314.766 0 0 0-.092 10.045c-3.444.291-6.736.23-10.104.215.015-3.37-.092-6.769-.03-10.077zM42 34.041c3.482-.093 6.856 0 10.246 0v10.203c-3.39 0-6.826.093-10.138 0-.062-3.426 0-6.76-.108-10.203zM42 46.041c3.482-.093 6.856 0 10.246 0v10.203c-3.39 0-6.826.093-10.138 0-.062-3.426 0-6.76-.108-10.203zM41.947 58.01c3.482-.093 6.856 0 10.246 0v10.203c-3.39 0-6.825.093-10.138 0-.061-3.427 0-6.76-.108-10.203zM54 34.09c3.567 0 6.89-.202 10.153 0 0 3.199.106 6.753.091 10.169-3.354-.093-6.692.093-10.198 0 .076-3.4.106-6.924-.046-10.17zM54 46.09c3.567 0 6.89-.202 10.153 0 0 3.199.106 6.753.091 10.169-3.354-.093-6.692.093-10.198 0 .076-3.4.106-6.924-.046-10.17zM53.947 58.058c3.568 0 6.89-.2 10.153 0 0 3.2.107 6.754.091 10.17-3.353-.093-6.692.092-10.198 0 .076-3.4.107-6.924-.046-10.17zM66 34.048c3.379-.108 6.774 0 10.246 0V44.07c-3.364 0-6.805.107-10.168.215-.047-3.505-.031-6.84-.078-10.238zM66 46.048c3.379-.108 6.774 0 10.246 0V56.07c-3.364 0-6.805.107-10.168.215-.047-3.505-.031-6.84-.078-10.238zM65.947 58.017c3.38-.108 6.774 0 10.246 0v10.022c-3.364 0-6.805.108-10.168.215-.047-3.504-.031-6.84-.078-10.237zM78.058 34.2c3.39-.23 6.811-.23 10.14-.154 0 3.495.108 6.714 0 10.01-3.422.107-6.765.107-10.14.23-.077-3.403-.077-6.73 0-10.087zM78.058 46.2c3.39-.23 6.811-.23 10.14-.154 0 3.495.108 6.714 0 10.01-3.422.107-6.765.107-10.14.23-.077-3.403-.077-6.73 0-10.087zM78.005 58.168c3.39-.23 6.812-.23 10.14-.153 0 3.495.108 6.714 0 10.01-3.421.107-6.765.107-10.14.23-.077-3.404-.077-6.73 0-10.087zM91 34c3.497.093 6.886.108 10.198.186 0 3.34.108 6.759 0 10.1H91.062c0-3.326.03-6.852-.062-10.286zM91 46c3.497.093 6.886.108 10.198.186 0 3.34.108 6.759 0 10.1H91.062c0-3.326.03-6.852-.062-10.286zM90.947 57.969c3.497.093 6.886.108 10.198.185 0 3.341.108 6.76 0 10.1H91.01c0-3.325.03-6.851-.062-10.285zM103.03 34.033c3.385-.108 6.663.077 10.216.124v10.129c-3.339-.185-6.861-.108-10.246 0 .123-3.5 0-6.86.03-10.253zM103.03 46.033c3.385-.108 6.663.077 10.216.124v10.129c-3.339-.185-6.861-.108-10.246 0 .123-3.5 0-6.86.03-10.253zM102.978 58.002c3.385-.108 6.662.077 10.215.123v10.13c-3.339-.186-6.861-.108-10.246 0 .123-3.5 0-6.861.031-10.253zM115 34.09c3.415-.125 6.815-.11 10.246-.016v10.212h-10.138c0-3.378-.093-6.959-.108-10.196zM115 46.09c3.415-.125 6.815-.11 10.246-.016v10.212h-10.138c0-3.378-.093-6.959-.108-10.196zM114.947 58.058c3.416-.124 6.815-.109 10.246-.015v10.211h-10.137c0-3.377-.093-6.958-.109-10.196zM127.23 34c3.313.077 6.626.077 10.016 0 0 3.403-.092 6.867 0 10.162-3.313 0-6.703 0-10.246.124.153-3.542.169-6.883.23-10.286zM127.23 46c3.313.077 6.626.077 10.016 0 0 3.403-.092 6.867 0 10.162-3.313 0-6.703 0-10.246.124.153-3.542.169-6.883.23-10.286zM127.177 57.969c3.313.077 6.626.077 10.016 0 0 3.403-.092 6.867 0 10.162-3.313 0-6.703 0-10.246.123.154-3.541.17-6.882.23-10.285zM140.062 34c3.307 0 6.691.077 10.184.184v10.102c-3.385-.093-6.83-.108-10.246 0 .077-3.506.046-6.904.062-10.286zM140.062 46c3.307 0 6.691.077 10.184.184v10.102c-3.385-.093-6.83-.108-10.246 0 .077-3.506.046-6.904.062-10.286zM140.009 57.969c3.307 0 6.692.077 10.184.184v10.101c-3.384-.092-6.83-.107-10.246 0 .077-3.505.047-6.903.062-10.285zM152 34.03l10.246-.03v10.286l-10.215-.093zM152 46.03l10.246-.03v10.286l-10.215-.093zM151.93 58.11l9.332-.11.03 10.254h-9.363v-8.146zM17 70h10.246l-.093 10.131L17 80.286zM29.021 70.04c3.108-.124 6.215.077 9.28.154 0 3.338.1 6.754 0 10.092h-9.308c-.057-3.447-.057-6.723.028-10.247zM41.76 70.048c3.395-.108 6.882 0 10.246 0-.077 3.295 0 6.697 0 10.07-3.364 0-6.76 0-10.078.168-.06-3.587.031-6.958-.168-10.238zM53.72 70.033c3.418-.108 6.774.093 10.24 0 0 3.474 0 6.67-.109 10.253H53.735c.061-3.382-.047-6.794-.016-10.253zM66.596 70c3.329 0 6.735.093 10.094.078.109 3.449.093 6.805 0 10.208H66.596c-.108-3.387-.093-6.743 0-10.286zM77.774 70c3.384 0 6.8 0 10.091.093 0 3.361-.092 6.754 0 10.193-3.322 0-6.83-.109-10.245 0 .077-3.532.154-6.925.154-10.286zM90.433 70c3.382 0 6.719.077 10.086.155.107 3.372.107 6.774.154 10.13-3.506 0-6.812-.108-10.225 0 .061-3.34-.046-6.758-.015-10.285zM102.38 70c3.412 0 6.763.093 10.19 0 .125 3.397 0 6.81 0 10.237-3.427.11-6.762 0-10.174 0 .124-3.412-.016-6.902-.016-10.237zM115.28 70.093c3.405 0 6.794 0 10.153-.093 0 3.527-.124 6.914 0 10.286h-10.246c.093-3.511.093-6.852.093-10.193zM127.187 70c3.405.077 6.904 0 10.123 0 .17 3.429 0 6.95 0 10.286-3.39-.201-6.749-.078-10.17-.093.17-3.429-.015-6.842.047-10.193zM139.947 70.092c3.083 0 6.224.077 9.392-.092v10.286a190.683 190.683 0 0 0-9.377 0c.042-3.536-.015-6.811-.015-10.194zM151.9 70.139L162.13 70l.016 10.255-10.214.03zM16.76 83l10.246.12-.093 10.166-10.06-.136zM28.76 83c3.354.076 6.723.09 10.047.151.092 3.295.092 6.62.199 9.916-3.553.257-6.907.242-10.215.182.061-3.568.015-6.59-.03-10.249zM41.837 83.086c3.35-.122 6.76-.107 10.094 0 .108 3.329.092 6.688 0 9.726-3.38.245-6.776.184-10.17.474.076-3.741-.032-6.734.076-10.2zM90.55 82.857c3.374.077 6.764.092 10.123 0a208.095 208.095 0 0 0 0 10.286c-3.313 0-6.887-.123-10.246 0 0-3.398.062-6.673.123-10.286zM115.204 82.905c3.082 0 6.25-.108 9.375 0-.1 3.51 0 6.85 0 10.238-3.082 0-6.15-.077-9.303 0-.029-3.541-.129-6.928-.072-10.238zM127.279 82.857c3.39.078 6.717.078 10.107.093 0 3.398-.092 6.81 0 10.193-3.374 0-6.764-.078-10.246 0 .031-3.336.108-6.749.139-10.286zM140.086 82.926c3.24-.155 6.697 0 10.107 0-.077 3.41-.077 6.772-.154 10.135-3.333.124-6.712.093-10.092 0 .062-3.332.062-6.725.139-10.135zM151.9 82.903l9.378-.046.014 10.255-9.391.03z"/>
                <path d="M53.713 93.143l70.808-.046.058-10.24-70.764.2zM162.167 71.044l-.875 9.242h-21.33V70.007h12.02V58.05h10.185v10.393z"/>
            </g>
            <path fill="#FFF" d="M4-27.628c26.297 0 52.608-.058 78.933-.174C109.365-27.876 135.716-27.9 162-28c-2.584 8.474-5.02 16.29-7.375 23.625-2.046 6.764-4.078 13.156-5.935 19.152-21.44 0-42.824.198-64.223.112-21.399-.087-42.81.086-64.236.111a755.06 755.06 0 0 0-7.254-19.016C10.325-11.387 7.243-19.18 4-27.628z"/>
            <g fill-rule="nonzero">
                <path fill="#FF5200" d="M264.984 21.294s82.44 24.383 88.634 27.357c6.194 2.974 10.303 5.944 17.613 22.237a304.077 304.077 0 0 0 13.995 27.527s2.507 5.406-3.266 4.204c-4.514-.938-8.114-3.55-8.639-5.788-.524-2.237-7.034-23.703-8.682-26.619-1.648-2.915-4.74-13.366-11.93-17.481-7.189-4.115-89.152-20.843-89.152-20.843l1.427-10.594z"/>
                <path fill="#FFF" d="M265.37 20.107s82.445 24.385 88.625 27.33c6.18 2.945 10.297 6.037 17.631 22.259a306.877 306.877 0 0 0 13.978 27.511s2.529 5.41-3.244 4.208c-4.543-.924-8.115-3.55-8.66-5.794-.546-2.243-7.04-23.694-8.625-26.588-1.585-2.894-4.783-13.375-11.974-17.49-7.19-4.114-89.107-20.855-89.107-20.855l1.376-10.581z"/>
                <path fill="#FF5200" d="M405.304 65.237s-80.76-26.479-87.521-27.462c-6.761-.984-11.727-1.004-26.823 8.15a299.557 299.557 0 0 1-26.872 14.581s-5.129 3.092.258 5.27c4.213 1.773 8.633 1.64 10.292.133 1.658-1.507 19.087-15.375 22.046-16.935 2.958-1.56 11.35-8.206 19.557-7.442 8.207.763 84.251 33.012 84.251 33.012l4.812-9.307z"/>
                <path fill="#FFF" d="M405.693 64.037s-80.755-26.477-87.515-27.462c-6.76-.985-11.752-.92-26.82 8.22a302.015 302.015 0 0 1-26.888 14.493s-5.106 3.091.274 5.29c4.213 1.773 8.625 1.663 10.29.137 1.664-1.525 19.069-15.322 21.999-16.793 2.929-1.471 11.406-8.17 19.578-7.51 8.171.66 84.227 32.997 84.227 32.997l4.855-9.372z"/>
                <path fill="#FFF" d="M407.05 65.043a202.365 202.365 0 0 0-33.786-12.678c-11.752-2.909-14.85-2.43-20.486-1.7-4.44.474-11.254 2.69-15.902 2.162a23.641 23.641 0 0 1-3.801-.708 23.757 23.757 0 0 1-3.499-1.568c-4.168-2.217-8.546-7.854-11.902-10.788-4.298-3.744-6.558-5.987-17.867-10.26a202.335 202.335 0 0 0-35.13-8.756c-1.055-.103-1.493 2.173-1.493 2.173s-1.402 4.885-1.839 6.228c-.436 1.343.89 2.396 3.636 6.282 2.746 3.885-.817 15.348 1.45 24.419 2.265 9.07 11.988 15.869 20.623 18.674 8.634 2.806 17.472 1.774 22.871-2.363 4.643-3.592 11.631-12.122 14.174-14.242 1.822-1.31 4.114-1.694 6.212-1.04 2.098.653 3.765 2.27 4.518 4.383.867 3.18 1.772 14.155 3.57 19.744 2.07 6.468 8.796 12.221 17.487 14.925 8.69 2.704 20.427 2.662 27.558-3.594 7.13-6.257 10.748-17.75 15.079-19.312 4.33-1.562 6.163-1.853 6.55-3.116.387-1.263 2.006-6.173 2.006-6.173s.997-2.143-.03-2.692zM303.103 75.692c-8.64 3.634-22.888-2.648-28.664-8.117-6.844-6.462-5.665-18.22-4.718-26.055.947-7.834 5.654-12.196 11.89-11.847a70.44 70.44 0 0 1 15.378 3.297 55.54 55.54 0 0 1 13.569 6.516c11.483 7.443 9.045 16.087 8.025 19.371-2.793 7.473-8.37 13.54-15.48 16.835zm88.06 3.73c-3.636 6.985-9.405 17.324-18.706 18.78-7.88 1.223-23.17-1.709-28.207-9.596-3.965-6.726-5.096-14.862-3.138-22.573 1.041-3.205 3.982-11.685 17.585-11.336a55.333 55.333 0 0 1 14.85 2.43 70.41 70.41 0 0 1 14.5 6.004c5.418 2.934 6.767 9.192 3.116 16.292z"/>
                <path fill="#E5E7EA" d="M274.167 67.192c-6.872-6.472-5.68-18.225-4.739-26.06.942-7.836 5.575-12.221 11.893-11.844a72.783 72.783 0 0 1 15.411 3.307 55.923 55.923 0 0 1 13.633 6.489c11.52 7.478 9.092 16.1 8.05 19.377-2.761 7.496-8.345 13.584-15.483 16.88-8.644 3.632-22.943-2.666-28.765-8.15zM389.85 79.553c-3.627 7-9.397 17.297-18.744 18.732-7.92 1.205-23.296-1.758-28.384-9.629-4.021-6.771-5.162-14.957-3.162-22.693 1.04-3.201 3.978-11.669 17.654-11.29 5.072.142 10.093.97 14.933 2.46a72.858 72.858 0 0 1 14.59 6.032c5.446 3.18 6.788 9.451 3.112 16.388z" opacity=".3"/>
            </g>
            <g fill-rule="nonzero">
                <path fill="#FF5200" d="M285.972 162.533l-12.824 7.398-45.414-73.035 17.393-9.998z"/>
                <path fill="#EA8B33" d="M224.69 92.615l17.966-10.38 2.306 3.992-17.965 10.38z"/>
                <path fill="#28292C" d="M230.954 76.405l-5.99-10.383-5.93 3.437 5.99 10.383.054 13.127 17.226-9.967z"/>
                <path fill="#E7425E" d="M216.873 63.685l2.54 4.358 4.289-2.446-4.29-7.368z"/>
                <path fill="#FFF" d="M216.973 63.96l4.512-.352-1.736-5.502z" opacity=".3"/>
                <path fill="#181919" d="M222.02 67.717l11.483 19.732 8.617-4.953-11.25-6.37-5.886-10.111z"/>
                <path fill="#FFF" d="M242.303 83l-17.335 10.009-14.054-28.843 13.365-7.709z"/>
                <path fill="#FFF" d="M234.104 87.23l9.099-5.13-18.166-25.918-7.01 3.935z"/>
            </g>
        </g>
    </g>
</svg>
